G04 PROTEUS GERBER X2 FILE*
%TF.GenerationSoftware,Labcenter,Proteus,8.12-SP0-Build30713*%
%TF.CreationDate,2021-08-06T04:24:26+00:00*%
%TF.FileFunction,Copper,L2,Bot*%
%TF.FilePolarity,Positive*%
%TF.Part,Single*%
%TF.SameCoordinates,{793229e0-97f6-4af7-a571-5be770182b8e}*%
%FSLAX45Y45*%
%MOMM*%
G01*
%TA.AperFunction,Conductor*%
%ADD10C,0.381000*%
%ADD11C,0.203200*%
%TA.AperFunction,ViaPad*%
%ADD12C,1.016000*%
%ADD13C,0.508000*%
%TA.AperFunction,ComponentPad*%
%ADD15C,1.524000*%
%TA.AperFunction,ComponentPad*%
%ADD16C,2.032000*%
%TA.AperFunction,SMDPad,CuDef*%
%ADD25R,1.143000X1.447800*%
%TA.AperFunction,ComponentPad*%
%ADD17C,3.048000*%
%TA.AperFunction,ComponentPad*%
%ADD71R,2.032000X2.032000*%
%TA.AperFunction,SMDPad,CuDef*%
%ADD26R,0.609600X0.609600*%
%TA.AperFunction,WasherPad*%
%ADD23C,1.397000*%
%TA.AperFunction,Profile*%
%ADD24C,0.203200*%
%TD.AperFunction*%
D10*
X+2291905Y+192055D02*
X+2700000Y+192055D01*
X+2700000Y+310000D01*
X+2291905Y+192055D02*
X+1867945Y+192055D01*
X+1740000Y+320000D01*
X+1600000Y+270000D02*
X+1650000Y+320000D01*
X+1740000Y+320000D01*
X+1910000Y+320000D01*
X+1600000Y+270000D02*
X+1600000Y+507969D01*
X+1546939Y+561030D01*
X+1560000Y+650000D01*
X+1520000Y+3540000D02*
X+1520000Y+3176000D01*
X+1736000Y+2960000D01*
X+980000Y+3680000D02*
X+998101Y+3680000D01*
X+998101Y+3290000D01*
X+960000Y+3290000D01*
X+2430000Y+2960000D02*
X+2430000Y+3127000D01*
X+2493500Y+3190500D01*
X+2859500Y+3190500D01*
X+3090000Y+2960000D01*
X+980000Y+3680000D02*
X+922850Y+3646594D01*
X+882256Y+3606000D01*
X+769500Y+3606000D01*
X+980000Y+3680000D02*
X+1033587Y+3752390D01*
X+1037633Y+3756436D01*
X+1037633Y+3815735D01*
X+1042575Y+3820677D01*
X+1255065Y+3820677D01*
X+1255065Y+3766465D01*
X+1481530Y+3540000D01*
X+1520000Y+3540000D01*
X+960000Y+3290000D02*
X+768000Y+3098000D01*
X+641000Y+3098000D01*
X+769500Y+3606000D02*
X+641000Y+3606000D01*
X+1214000Y+1793500D02*
X+1214000Y+1984000D01*
X+1150500Y+2047500D01*
X+1070000Y+2047500D01*
X+1138000Y+1540000D02*
X+1138000Y+1979500D01*
X+1070000Y+2047500D01*
X+2992000Y+2238000D02*
X+2611000Y+2238000D01*
X+2547500Y+2301500D01*
X+1070000Y+2360000D02*
X+1070000Y+2047500D01*
X+3055500Y+2111000D02*
X+3690500Y+2111000D01*
X+2992000Y+2238000D02*
X+2992000Y+2174500D01*
X+3055500Y+2111000D01*
X+2992000Y+1880000D02*
X+2992000Y+2047500D01*
X+3055500Y+2111000D01*
X+3210000Y+1050000D02*
X+3210000Y+968000D01*
X+3308000Y+870000D01*
X+4250000Y+870000D01*
X+2992000Y+1880000D02*
X+3210000Y+1880000D01*
X+3210000Y+1050000D01*
X+4250000Y+870000D02*
X+4250000Y+650500D01*
X+4313500Y+587000D01*
X+4504000Y+587000D01*
X+4504000Y+430000D01*
X+4250000Y+870000D02*
X+4250000Y+1054090D01*
X+4080000Y+1054090D01*
X+4080000Y+970000D01*
X+970000Y+2910000D02*
X+970000Y+2415467D01*
X+1058993Y+2326474D01*
X+1070000Y+2360000D01*
X+970000Y+2910000D02*
X+904000Y+2844000D01*
X+641000Y+2844000D01*
X+4650000Y+870000D02*
X+4650000Y+714000D01*
X+4713500Y+650500D01*
X+4758000Y+650500D01*
X+5024000Y+1095000D02*
X+5024000Y+714000D01*
X+4960500Y+650500D01*
X+4758000Y+650500D01*
X+2992000Y+1626000D02*
X+3136560Y+1626000D01*
X+3136560Y+968000D01*
X+3019498Y+850938D01*
X+2252372Y+850938D01*
X+3690500Y+1285500D02*
X+3535500Y+1285500D01*
X+3300000Y+1050000D01*
X+4650000Y+870000D02*
X+4650000Y+1024500D01*
X+4516000Y+1158500D01*
X+4758000Y+650500D02*
X+4758000Y+430000D01*
X+2547500Y+650000D02*
X+2610000Y+587500D01*
X+2610000Y+310000D01*
X+3690500Y+1285500D02*
X+3754000Y+1349000D01*
X+4008000Y+1158500D02*
X+3817500Y+1158500D01*
X+3690500Y+1285500D01*
X+6484500Y+3444500D02*
X+6484500Y+2846500D01*
X+6737000Y+2594000D01*
X+641000Y+2590000D02*
X+522890Y+2708110D01*
X+515500Y+2708110D01*
X+515500Y+3988500D01*
X+641000Y+4114000D01*
X+2068000Y+650000D02*
X+2547500Y+650000D01*
X+1392000Y+1540000D02*
X+1392000Y+2047500D01*
X+1341000Y+2098500D01*
X+1341000Y+2492000D01*
X+5976500Y+1222000D02*
X+5976500Y+1031500D01*
X+6068810Y+939190D01*
X+6606190Y+939190D01*
X+6737000Y+1070000D01*
X+5532000Y+2555500D02*
X+5913000Y+2936500D01*
X+5913000Y+3825500D01*
X+1214000Y+2492000D02*
X+1341000Y+2492000D01*
X+6356000Y+3864000D02*
X+6484500Y+3735500D01*
X+6484500Y+3444500D01*
X+1150000Y+2910000D02*
X+1150000Y+2556000D01*
X+1214000Y+2492000D01*
X+1059999Y+120000D02*
X+1059999Y+279999D01*
X+1060000Y+280000D01*
X+4008000Y+1158500D02*
X+3990000Y+1140500D01*
X+3990000Y+970000D01*
X+5532000Y+2555500D02*
X+4960500Y+2555500D01*
X+260000Y+2590000D02*
X+515500Y+2590000D01*
X+641000Y+2590000D02*
X+641000Y+2336000D01*
X+641000Y+2590000D02*
X+515500Y+2590000D01*
X+5976500Y+1285500D02*
X+5976500Y+1222000D01*
X+6103500Y+1285500D02*
X+5976500Y+1285500D01*
X+4008000Y+1158500D02*
X+4516000Y+1158500D01*
X+3436500Y+1920500D02*
X+3754000Y+1603000D01*
X+3754000Y+1349000D01*
X+1060000Y+120000D02*
X+1059999Y+120000D01*
X+1420000Y+270000D02*
X+1430000Y+260000D01*
X+1430000Y+120000D01*
X+1060001Y+120000D01*
X+1060000Y+120000D02*
X+1060001Y+120000D01*
X+260000Y+2590000D02*
X+80000Y+2410000D01*
X+80000Y+109999D01*
X+122763Y+120000D01*
X+1059999Y+120000D01*
X+1420000Y+270000D02*
X+1420000Y+520000D01*
X+1370841Y+569159D01*
X+1370841Y+730846D01*
X+1479142Y+839147D01*
X+1728394Y+839147D01*
X+2252372Y+850938D02*
X+2240581Y+839147D01*
X+1728394Y+839147D01*
X+1873770Y+693770D01*
X+2068000Y+650000D02*
X+1915600Y+651941D01*
X+1873771Y+693770D01*
X+1873770Y+693770D02*
X+1873771Y+693770D01*
X+1140000Y+3290000D02*
X+1150000Y+3280000D01*
X+1150000Y+3030000D01*
X+1150000Y+2910000D02*
X+1150000Y+3030000D01*
X+1140000Y+3290000D02*
X+1160000Y+3310000D01*
X+1160000Y+3680000D01*
D11*
X+5913000Y+1539500D02*
X+5928600Y+1539500D01*
X+5954000Y+1564900D01*
X+5954000Y+1700000D01*
X+4008000Y+1857000D02*
X+4010000Y+1855000D01*
X+4010000Y+1700000D01*
X+4833500Y+2047500D02*
X+4706500Y+2047500D01*
X+4580000Y+1921000D01*
X+4580000Y+1700000D01*
X+5151000Y+1920500D02*
X+5140000Y+1909500D01*
X+5140000Y+1710000D01*
D10*
X+3290000Y+60000D02*
X+3881158Y+60000D01*
X+4250000Y+428842D01*
X+4250000Y+430000D01*
X+3610000Y+210000D02*
X+3830000Y+430000D01*
X+3996000Y+430000D01*
D11*
X+5849500Y+968000D02*
X+6001500Y+816000D01*
X+6356000Y+816000D01*
X+5266000Y+430000D02*
X+5553500Y+142500D01*
X+6802000Y+142500D01*
X+6865500Y+206000D01*
X+6865500Y+3481500D01*
X+6737000Y+3610000D01*
X+5151000Y+841000D02*
X+5151000Y+1349000D01*
X+6484500Y+2111000D02*
X+6484100Y+2111000D01*
X+6459100Y+2086000D01*
X+6356000Y+2086000D01*
X+6167000Y+1031500D02*
X+6167000Y+1095000D01*
X+6272810Y+1200810D01*
X+6484500Y+1200810D01*
X+6548000Y+1264310D01*
X+6548000Y+1389000D01*
X+6737000Y+1578000D01*
X+6230500Y+2746000D02*
X+6230500Y+1449500D01*
X+6356000Y+1324000D01*
X+4834000Y+2950000D02*
X+5038000Y+2746000D01*
X+5278000Y+2746000D01*
X+3890000Y+2950000D02*
X+3682273Y+2742273D01*
X+2293500Y+2742273D01*
X+2230000Y+2678773D01*
X+2230000Y+1285500D01*
X+2137500Y+1193000D01*
X+515500Y+1193000D01*
X+452000Y+1256500D01*
X+452000Y+2144000D01*
X+260000Y+2336000D01*
X+6865500Y+4333500D02*
X+6929000Y+4270000D01*
X+6929000Y+142500D01*
X+6865500Y+79000D01*
X+5363000Y+79000D01*
X+5012000Y+430000D01*
X+1976000Y+2746000D02*
X+1990000Y+2760000D01*
X+1990000Y+2960000D01*
X+833000Y+587000D02*
X+804000Y+558000D01*
X+641000Y+558000D01*
X+2166500Y+1984000D02*
X+2166500Y+3127000D01*
X+1849000Y+3444500D01*
X+1849000Y+3668000D01*
X+641000Y+4876000D01*
X+3055500Y+2428500D02*
X+2357000Y+2428500D01*
X+2293500Y+2365000D01*
X+2293500Y+1031500D01*
X+2201000Y+939000D01*
X+515500Y+939000D01*
X+452000Y+875500D01*
X+452000Y+750000D01*
X+260000Y+558000D01*
X+4840000Y+1095000D02*
X+4840000Y+1349000D01*
X+4903500Y+1412500D01*
X+6103500Y+1412500D01*
X+6167000Y+1476000D01*
X+6167000Y+4714500D01*
X+6230500Y+4778000D01*
X+6459500Y+4778000D01*
X+6611500Y+4626000D01*
X+6737000Y+4626000D01*
X+4071500Y+1285500D02*
X+4649500Y+1285500D01*
X+4840000Y+1095000D01*
X+4840000Y+830000D01*
X+2992000Y+1118000D02*
X+2738000Y+1372000D01*
X+2738000Y+1984000D01*
X+2865000Y+2111000D01*
X+5214500Y+1476000D02*
X+6040000Y+1476000D01*
X+6103500Y+1539500D01*
X+6103500Y+4841500D01*
X+6302000Y+5040000D01*
X+6556000Y+5040000D01*
X+6611500Y+5095500D01*
X+6802000Y+5095500D01*
X+6865500Y+5032000D01*
X+6865500Y+4587500D01*
X+6780810Y+4502810D01*
X+6675000Y+4502810D01*
X+6611500Y+4439310D01*
X+6611500Y+3481500D01*
X+6737000Y+3356000D01*
D10*
X+641000Y+2336000D02*
X+769500Y+2207500D01*
X+769500Y+1412500D01*
X+922000Y+1260000D01*
X+1392000Y+1260000D01*
X+1392000Y+1540000D01*
X+1210000Y+1460000D02*
X+1133525Y+1536475D01*
X+1120946Y+1536475D01*
X+1138000Y+1540000D01*
X+1300000Y+1460000D02*
X+1312000Y+1460000D01*
X+1392000Y+1540000D01*
D12*
X+2291905Y+192055D03*
X+2547500Y+2301500D03*
X+1214000Y+1793500D03*
X+3690500Y+2111000D03*
X+5024000Y+1095000D03*
X+5913000Y+3825500D03*
X+1341000Y+2492000D03*
X+4960500Y+2555500D03*
X+4516000Y+1158500D03*
X+3436500Y+1920500D03*
X+6103500Y+1285500D03*
X+5532000Y+2555500D03*
X+2252372Y+850938D03*
D13*
X+5913000Y+1539500D03*
X+4008000Y+1857000D03*
X+4833500Y+2047500D03*
X+5151000Y+1920500D03*
X+5849500Y+968000D03*
X+5151000Y+1349000D03*
X+5151000Y+841000D03*
X+6484500Y+2111000D03*
X+6167000Y+1031500D03*
X+6230500Y+2746000D03*
X+5278000Y+2746000D03*
X+6865500Y+4333500D03*
X+1976000Y+2746000D03*
X+833000Y+587000D03*
X+2166500Y+1984000D03*
X+3055500Y+2428500D03*
X+4071500Y+1285500D03*
X+2865000Y+2111000D03*
X+5214500Y+1476000D03*
D15*
X+641000Y+4876000D03*
X+260000Y+4622000D03*
X+641000Y+4622000D03*
X+260000Y+4368000D03*
X+641000Y+4368000D03*
X+260000Y+4114000D03*
X+641000Y+4114000D03*
X+260000Y+3860000D03*
X+641000Y+3860000D03*
X+260000Y+3606000D03*
X+641000Y+3606000D03*
X+260000Y+3352000D03*
X+641000Y+3352000D03*
X+260000Y+3098000D03*
X+641000Y+3098000D03*
X+260000Y+2844000D03*
X+641000Y+2844000D03*
X+260000Y+2590000D03*
X+641000Y+2590000D03*
X+260000Y+2336000D03*
X+641000Y+2336000D03*
X+260000Y+2082000D03*
X+641000Y+2082000D03*
X+260000Y+1828000D03*
X+641000Y+1828000D03*
X+260000Y+1574000D03*
X+641000Y+1574000D03*
X+260000Y+1320000D03*
X+641000Y+1320000D03*
X+260000Y+1066000D03*
X+641000Y+1066000D03*
X+260000Y+812000D03*
X+641000Y+812000D03*
X+260000Y+558000D03*
X+641000Y+558000D03*
X+260000Y+304000D03*
X+641000Y+304000D03*
X+6737000Y+4880000D03*
X+6356000Y+4626000D03*
X+6737000Y+4626000D03*
X+6356000Y+4372000D03*
X+6737000Y+4372000D03*
X+6356000Y+4118000D03*
X+6737000Y+4118000D03*
X+6356000Y+3864000D03*
X+6737000Y+3864000D03*
X+6356000Y+3610000D03*
X+6737000Y+3610000D03*
X+6356000Y+3356000D03*
X+6737000Y+3356000D03*
X+6356000Y+3102000D03*
X+6737000Y+3102000D03*
X+6356000Y+2848000D03*
X+6737000Y+2848000D03*
X+6356000Y+2594000D03*
X+6737000Y+2594000D03*
X+6356000Y+2340000D03*
X+6737000Y+2340000D03*
X+6356000Y+2086000D03*
X+6737000Y+2086000D03*
X+6356000Y+1832000D03*
X+6737000Y+1832000D03*
X+6356000Y+1578000D03*
X+6737000Y+1578000D03*
X+6356000Y+1324000D03*
X+6737000Y+1324000D03*
X+6356000Y+1070000D03*
X+6737000Y+1070000D03*
X+6356000Y+816000D03*
X+6737000Y+816000D03*
X+6356000Y+562000D03*
X+6737000Y+562000D03*
X+6356000Y+308000D03*
X+6737000Y+308000D03*
D16*
X+1060000Y+280000D03*
D25*
X+980000Y+3680000D03*
X+1160000Y+3680000D03*
X+960000Y+3290000D03*
X+1140000Y+3290000D03*
D16*
X+1520000Y+3540000D03*
D25*
X+970000Y+2910000D03*
X+1150000Y+2910000D03*
D16*
X+1070000Y+2360000D03*
D17*
X+1560000Y+650000D03*
X+2068000Y+650000D03*
D25*
X+1600000Y+270000D03*
X+1420000Y+270000D03*
D16*
X+1910000Y+320000D03*
X+3290000Y+60000D03*
X+3610000Y+210000D03*
D71*
X+5520000Y+430000D03*
X+5266000Y+430000D03*
X+5012000Y+430000D03*
X+4758000Y+430000D03*
X+4504000Y+430000D03*
X+4250000Y+430000D03*
X+3996000Y+430000D03*
X+2992000Y+1880000D03*
X+2992000Y+1626000D03*
X+2992000Y+1372000D03*
X+2992000Y+1118000D03*
D26*
X+3210000Y+1050000D03*
X+3300000Y+1050000D03*
D16*
X+3610000Y+1130000D03*
D71*
X+1138000Y+1540000D03*
X+1392000Y+1540000D03*
X+1646000Y+1540000D03*
X+1900000Y+1540000D03*
D26*
X+1210000Y+1460000D03*
X+1300000Y+1460000D03*
D71*
X+4010000Y+1700000D03*
X+4264000Y+1700000D03*
X+4580000Y+1700000D03*
X+4834000Y+1700000D03*
X+5140000Y+1710000D03*
X+5394000Y+1710000D03*
X+5700000Y+1700000D03*
X+5954000Y+1700000D03*
D23*
X+4250000Y+870000D03*
X+4450000Y+870000D03*
X+4650000Y+870000D03*
D26*
X+4080000Y+970000D03*
X+3990000Y+970000D03*
D16*
X+4840000Y+830000D03*
D26*
X+2700000Y+310000D03*
X+2610000Y+310000D03*
D71*
X+1736000Y+2960000D03*
X+1990000Y+2960000D03*
X+3890000Y+2950000D03*
X+4144000Y+2950000D03*
X+4580000Y+2950000D03*
X+4834000Y+2950000D03*
X+2430000Y+2960000D03*
X+2684000Y+2960000D03*
X+3090000Y+2960000D03*
X+3344000Y+2960000D03*
X+5220000Y+2950000D03*
X+5474000Y+2950000D03*
D24*
X+0Y+0D02*
X+1650000Y+0D01*
X+7000000Y+0D02*
X+7000000Y+6000000D01*
X+5000000Y+6000000D01*
X+5000000Y+3700000D01*
X+4800000Y+3500000D01*
X+2200000Y+3500000D01*
X+2000000Y+3700000D02*
X+2000000Y+6000000D01*
X+0Y+6000000D01*
X+0Y+0D01*
X+2000000Y+3700000D02*
X+2200000Y+3500000D01*
X+5160000Y+0D02*
X+7000000Y+0D01*
X+1750000Y-200000D02*
X+5050000Y-200000D01*
X+1650000Y+0D02*
X+1750000Y-200000D01*
X+5160000Y+0D02*
X+5050000Y-200000D01*
X+4550045Y+50000D02*
X+4549508Y+63142D01*
X+4545144Y+89427D01*
X+4536029Y+115712D01*
X+4521182Y+141997D01*
X+4498470Y+168118D01*
X+4472185Y+187898D01*
X+4445900Y+200658D01*
X+4419615Y+208108D01*
X+4393330Y+210987D01*
X+4389000Y+211045D01*
X+4227955Y+50000D02*
X+4228492Y+63142D01*
X+4232856Y+89427D01*
X+4241971Y+115712D01*
X+4256818Y+141997D01*
X+4279530Y+168118D01*
X+4305815Y+187898D01*
X+4332100Y+200658D01*
X+4358385Y+208108D01*
X+4384670Y+210987D01*
X+4389000Y+211045D01*
X+4227955Y+50000D02*
X+4228492Y+36858D01*
X+4232856Y+10573D01*
X+4241971Y-15712D01*
X+4256818Y-41997D01*
X+4279530Y-68118D01*
X+4305815Y-87898D01*
X+4332100Y-100658D01*
X+4358385Y-108108D01*
X+4384670Y-110987D01*
X+4389000Y-111045D01*
X+4550045Y+50000D02*
X+4549508Y+36858D01*
X+4545144Y+10573D01*
X+4536029Y-15712D01*
X+4521182Y-41997D01*
X+4498470Y-68118D01*
X+4472185Y-87898D01*
X+4445900Y-100658D01*
X+4419615Y-108108D01*
X+4393330Y-110987D01*
X+4389000Y-111045D01*
X+6074045Y+5130000D02*
X+6073508Y+5143142D01*
X+6069144Y+5169427D01*
X+6060029Y+5195712D01*
X+6045182Y+5221997D01*
X+6022470Y+5248118D01*
X+5996185Y+5267898D01*
X+5969900Y+5280658D01*
X+5943615Y+5288108D01*
X+5917330Y+5290987D01*
X+5913000Y+5291045D01*
X+5751955Y+5130000D02*
X+5752492Y+5143142D01*
X+5756856Y+5169427D01*
X+5765971Y+5195712D01*
X+5780818Y+5221997D01*
X+5803530Y+5248118D01*
X+5829815Y+5267898D01*
X+5856100Y+5280658D01*
X+5882385Y+5288108D01*
X+5908670Y+5290987D01*
X+5913000Y+5291045D01*
X+5751955Y+5130000D02*
X+5752492Y+5116858D01*
X+5756856Y+5090573D01*
X+5765971Y+5064288D01*
X+5780818Y+5038003D01*
X+5803530Y+5011882D01*
X+5829815Y+4992102D01*
X+5856100Y+4979342D01*
X+5882385Y+4971892D01*
X+5908670Y+4969013D01*
X+5913000Y+4968955D01*
X+6074045Y+5130000D02*
X+6073508Y+5116858D01*
X+6069144Y+5090573D01*
X+6060029Y+5064288D01*
X+6045182Y+5038003D01*
X+6022470Y+5011882D01*
X+5996185Y+4992102D01*
X+5969900Y+4979342D01*
X+5943615Y+4971892D01*
X+5917330Y+4969013D01*
X+5913000Y+4968955D01*
X+1248045Y+5257000D02*
X+1247508Y+5270142D01*
X+1243144Y+5296427D01*
X+1234029Y+5322712D01*
X+1219182Y+5348997D01*
X+1196470Y+5375118D01*
X+1170185Y+5394898D01*
X+1143900Y+5407658D01*
X+1117615Y+5415108D01*
X+1091330Y+5417987D01*
X+1087000Y+5418045D01*
X+925955Y+5257000D02*
X+926492Y+5270142D01*
X+930856Y+5296427D01*
X+939971Y+5322712D01*
X+954818Y+5348997D01*
X+977530Y+5375118D01*
X+1003815Y+5394898D01*
X+1030100Y+5407658D01*
X+1056385Y+5415108D01*
X+1082670Y+5417987D01*
X+1087000Y+5418045D01*
X+925955Y+5257000D02*
X+926492Y+5243858D01*
X+930856Y+5217573D01*
X+939971Y+5191288D01*
X+954818Y+5165003D01*
X+977530Y+5138882D01*
X+1003815Y+5119102D01*
X+1030100Y+5106342D01*
X+1056385Y+5098892D01*
X+1082670Y+5096013D01*
X+1087000Y+5095955D01*
X+1248045Y+5257000D02*
X+1247508Y+5243858D01*
X+1243144Y+5217573D01*
X+1234029Y+5191288D01*
X+1219182Y+5165003D01*
X+1196470Y+5138882D01*
X+1170185Y+5119102D01*
X+1143900Y+5106342D01*
X+1117615Y+5098892D01*
X+1091330Y+5096013D01*
X+1087000Y+5095955D01*
M02*
