G04 PROTEUS GERBER X2 FILE*
%TF.GenerationSoftware,Labcenter,Proteus,8.12-SP0-Build30713*%
%TF.CreationDate,2021-08-06T04:24:26+00:00*%
%TF.FileFunction,Legend,Top*%
%TF.FilePolarity,Positive*%
%TF.Part,Single*%
%TF.SameCoordinates,{793229e0-97f6-4af7-a571-5be770182b8e}*%
%FSLAX45Y45*%
%MOMM*%
G01*
%TA.AperFunction,Profile*%
%ADD24C,0.203200*%
%TA.AperFunction,Material*%
%ADD27C,0.203200*%
%ADD28C,0.250000*%
%ADD29C,0.200000*%
%ADD72C,0.100000*%
%ADD73C,0.508000*%
%ADD30C,0.152400*%
%TD.AperFunction*%
D24*
X+0Y+0D02*
X+1650000Y+0D01*
X+7000000Y+0D02*
X+7000000Y+6000000D01*
X+5000000Y+6000000D01*
X+5000000Y+3700000D01*
X+4800000Y+3500000D01*
X+2200000Y+3500000D01*
X+2000000Y+3700000D02*
X+2000000Y+6000000D01*
X+0Y+6000000D01*
X+0Y+0D01*
X+2000000Y+3700000D02*
X+2200000Y+3500000D01*
X+5160000Y+0D02*
X+7000000Y+0D01*
X+1750000Y-200000D02*
X+5050000Y-200000D01*
X+1650000Y+0D02*
X+1750000Y-200000D01*
X+5160000Y+0D02*
X+5050000Y-200000D01*
X+4550045Y+50000D02*
X+4549508Y+63142D01*
X+4545144Y+89427D01*
X+4536029Y+115712D01*
X+4521182Y+141997D01*
X+4498470Y+168118D01*
X+4472185Y+187898D01*
X+4445900Y+200658D01*
X+4419615Y+208108D01*
X+4393330Y+210987D01*
X+4389000Y+211045D01*
X+4227955Y+50000D02*
X+4228492Y+63142D01*
X+4232856Y+89427D01*
X+4241971Y+115712D01*
X+4256818Y+141997D01*
X+4279530Y+168118D01*
X+4305815Y+187898D01*
X+4332100Y+200658D01*
X+4358385Y+208108D01*
X+4384670Y+210987D01*
X+4389000Y+211045D01*
X+4227955Y+50000D02*
X+4228492Y+36858D01*
X+4232856Y+10573D01*
X+4241971Y-15712D01*
X+4256818Y-41997D01*
X+4279530Y-68118D01*
X+4305815Y-87898D01*
X+4332100Y-100658D01*
X+4358385Y-108108D01*
X+4384670Y-110987D01*
X+4389000Y-111045D01*
X+4550045Y+50000D02*
X+4549508Y+36858D01*
X+4545144Y+10573D01*
X+4536029Y-15712D01*
X+4521182Y-41997D01*
X+4498470Y-68118D01*
X+4472185Y-87898D01*
X+4445900Y-100658D01*
X+4419615Y-108108D01*
X+4393330Y-110987D01*
X+4389000Y-111045D01*
X+6074045Y+5130000D02*
X+6073508Y+5143142D01*
X+6069144Y+5169427D01*
X+6060029Y+5195712D01*
X+6045182Y+5221997D01*
X+6022470Y+5248118D01*
X+5996185Y+5267898D01*
X+5969900Y+5280658D01*
X+5943615Y+5288108D01*
X+5917330Y+5290987D01*
X+5913000Y+5291045D01*
X+5751955Y+5130000D02*
X+5752492Y+5143142D01*
X+5756856Y+5169427D01*
X+5765971Y+5195712D01*
X+5780818Y+5221997D01*
X+5803530Y+5248118D01*
X+5829815Y+5267898D01*
X+5856100Y+5280658D01*
X+5882385Y+5288108D01*
X+5908670Y+5290987D01*
X+5913000Y+5291045D01*
X+5751955Y+5130000D02*
X+5752492Y+5116858D01*
X+5756856Y+5090573D01*
X+5765971Y+5064288D01*
X+5780818Y+5038003D01*
X+5803530Y+5011882D01*
X+5829815Y+4992102D01*
X+5856100Y+4979342D01*
X+5882385Y+4971892D01*
X+5908670Y+4969013D01*
X+5913000Y+4968955D01*
X+6074045Y+5130000D02*
X+6073508Y+5116858D01*
X+6069144Y+5090573D01*
X+6060029Y+5064288D01*
X+6045182Y+5038003D01*
X+6022470Y+5011882D01*
X+5996185Y+4992102D01*
X+5969900Y+4979342D01*
X+5943615Y+4971892D01*
X+5917330Y+4969013D01*
X+5913000Y+4968955D01*
X+1248045Y+5257000D02*
X+1247508Y+5270142D01*
X+1243144Y+5296427D01*
X+1234029Y+5322712D01*
X+1219182Y+5348997D01*
X+1196470Y+5375118D01*
X+1170185Y+5394898D01*
X+1143900Y+5407658D01*
X+1117615Y+5415108D01*
X+1091330Y+5417987D01*
X+1087000Y+5418045D01*
X+925955Y+5257000D02*
X+926492Y+5270142D01*
X+930856Y+5296427D01*
X+939971Y+5322712D01*
X+954818Y+5348997D01*
X+977530Y+5375118D01*
X+1003815Y+5394898D01*
X+1030100Y+5407658D01*
X+1056385Y+5415108D01*
X+1082670Y+5417987D01*
X+1087000Y+5418045D01*
X+925955Y+5257000D02*
X+926492Y+5243858D01*
X+930856Y+5217573D01*
X+939971Y+5191288D01*
X+954818Y+5165003D01*
X+977530Y+5138882D01*
X+1003815Y+5119102D01*
X+1030100Y+5106342D01*
X+1056385Y+5098892D01*
X+1082670Y+5096013D01*
X+1087000Y+5095955D01*
X+1248045Y+5257000D02*
X+1247508Y+5243858D01*
X+1243144Y+5217573D01*
X+1234029Y+5191288D01*
X+1219182Y+5165003D01*
X+1196470Y+5138882D01*
X+1170185Y+5119102D01*
X+1143900Y+5106342D01*
X+1117615Y+5098892D01*
X+1091330Y+5096013D01*
X+1087000Y+5095955D01*
D27*
X+1187000Y+280000D02*
X+1186573Y+290409D01*
X+1183101Y+311228D01*
X+1175845Y+332047D01*
X+1164017Y+352866D01*
X+1145920Y+373524D01*
X+1125101Y+389045D01*
X+1104282Y+399030D01*
X+1083463Y+404814D01*
X+1062644Y+406972D01*
X+1060000Y+407000D01*
X+933000Y+280000D02*
X+933427Y+290409D01*
X+936899Y+311228D01*
X+944155Y+332047D01*
X+955983Y+352866D01*
X+974080Y+373524D01*
X+994899Y+389045D01*
X+1015718Y+399030D01*
X+1036537Y+404814D01*
X+1057356Y+406972D01*
X+1060000Y+407000D01*
X+933000Y+280000D02*
X+933427Y+269591D01*
X+936899Y+248772D01*
X+944155Y+227953D01*
X+955983Y+207134D01*
X+974080Y+186476D01*
X+994899Y+170955D01*
X+1015718Y+160970D01*
X+1036537Y+155186D01*
X+1057356Y+153028D01*
X+1060000Y+153000D01*
X+1187000Y+280000D02*
X+1186573Y+269591D01*
X+1183101Y+248772D01*
X+1175845Y+227953D01*
X+1164017Y+207134D01*
X+1145920Y+186476D01*
X+1125101Y+170955D01*
X+1104282Y+160970D01*
X+1083463Y+155186D01*
X+1062644Y+153028D01*
X+1060000Y+153000D01*
X+1123500Y+280000D02*
X+1123283Y+285247D01*
X+1121518Y+295742D01*
X+1117826Y+306237D01*
X+1111798Y+316732D01*
X+1102576Y+327112D01*
X+1092081Y+334800D01*
X+1081586Y+339718D01*
X+1071091Y+342524D01*
X+1060596Y+343497D01*
X+1060000Y+343500D01*
X+996500Y+280000D02*
X+996717Y+285247D01*
X+998482Y+295742D01*
X+1002174Y+306237D01*
X+1008202Y+316732D01*
X+1017424Y+327112D01*
X+1027919Y+334800D01*
X+1038414Y+339718D01*
X+1048909Y+342524D01*
X+1059404Y+343497D01*
X+1060000Y+343500D01*
X+996500Y+280000D02*
X+996717Y+274753D01*
X+998482Y+264258D01*
X+1002174Y+253763D01*
X+1008202Y+243268D01*
X+1017424Y+232888D01*
X+1027919Y+225200D01*
X+1038414Y+220282D01*
X+1048909Y+217476D01*
X+1059404Y+216503D01*
X+1060000Y+216500D01*
X+1123500Y+280000D02*
X+1123283Y+274753D01*
X+1121518Y+264258D01*
X+1117826Y+253763D01*
X+1111798Y+243268D01*
X+1102576Y+232888D01*
X+1092081Y+225200D01*
X+1081586Y+220282D01*
X+1071091Y+217476D01*
X+1060596Y+216503D01*
X+1060000Y+216500D01*
X+869500Y+478120D02*
X+869500Y+462880D01*
X+885375Y+447640D01*
X+948875Y+447640D01*
X+964750Y+462880D01*
X+964750Y+539080D01*
X+1028250Y+508600D02*
X+1060000Y+539080D01*
X+1060000Y+447640D01*
X+1139375Y+523840D02*
X+1155250Y+539080D01*
X+1202875Y+539080D01*
X+1218750Y+523840D01*
X+1218750Y+508600D01*
X+1202875Y+493360D01*
X+1218750Y+478120D01*
X+1218750Y+462880D01*
X+1202875Y+447640D01*
X+1155250Y+447640D01*
X+1139375Y+462880D01*
X+1171125Y+493360D02*
X+1202875Y+493360D01*
X+1647000Y+3540000D02*
X+1646573Y+3550409D01*
X+1643101Y+3571228D01*
X+1635845Y+3592047D01*
X+1624017Y+3612866D01*
X+1605920Y+3633524D01*
X+1585101Y+3649045D01*
X+1564282Y+3659030D01*
X+1543463Y+3664814D01*
X+1522644Y+3666972D01*
X+1520000Y+3667000D01*
X+1393000Y+3540000D02*
X+1393427Y+3550409D01*
X+1396899Y+3571228D01*
X+1404155Y+3592047D01*
X+1415983Y+3612866D01*
X+1434080Y+3633524D01*
X+1454899Y+3649045D01*
X+1475718Y+3659030D01*
X+1496537Y+3664814D01*
X+1517356Y+3666972D01*
X+1520000Y+3667000D01*
X+1393000Y+3540000D02*
X+1393427Y+3529591D01*
X+1396899Y+3508772D01*
X+1404155Y+3487953D01*
X+1415983Y+3467134D01*
X+1434080Y+3446476D01*
X+1454899Y+3430955D01*
X+1475718Y+3420970D01*
X+1496537Y+3415186D01*
X+1517356Y+3413028D01*
X+1520000Y+3413000D01*
X+1647000Y+3540000D02*
X+1646573Y+3529591D01*
X+1643101Y+3508772D01*
X+1635845Y+3487953D01*
X+1624017Y+3467134D01*
X+1605920Y+3446476D01*
X+1585101Y+3430955D01*
X+1564282Y+3420970D01*
X+1543463Y+3415186D01*
X+1522644Y+3413028D01*
X+1520000Y+3413000D01*
X+1583500Y+3540000D02*
X+1583283Y+3545247D01*
X+1581518Y+3555742D01*
X+1577826Y+3566237D01*
X+1571798Y+3576732D01*
X+1562576Y+3587112D01*
X+1552081Y+3594800D01*
X+1541586Y+3599718D01*
X+1531091Y+3602524D01*
X+1520596Y+3603497D01*
X+1520000Y+3603500D01*
X+1456500Y+3540000D02*
X+1456717Y+3545247D01*
X+1458482Y+3555742D01*
X+1462174Y+3566237D01*
X+1468202Y+3576732D01*
X+1477424Y+3587112D01*
X+1487919Y+3594800D01*
X+1498414Y+3599718D01*
X+1508909Y+3602524D01*
X+1519404Y+3603497D01*
X+1520000Y+3603500D01*
X+1456500Y+3540000D02*
X+1456717Y+3534753D01*
X+1458482Y+3524258D01*
X+1462174Y+3513763D01*
X+1468202Y+3503268D01*
X+1477424Y+3492888D01*
X+1487919Y+3485200D01*
X+1498414Y+3480282D01*
X+1508909Y+3477476D01*
X+1519404Y+3476503D01*
X+1520000Y+3476500D01*
X+1583500Y+3540000D02*
X+1583283Y+3534753D01*
X+1581518Y+3524258D01*
X+1577826Y+3513763D01*
X+1571798Y+3503268D01*
X+1562576Y+3492888D01*
X+1552081Y+3485200D01*
X+1541586Y+3480282D01*
X+1531091Y+3477476D01*
X+1520596Y+3476503D01*
X+1520000Y+3476500D01*
X+1329500Y+3738120D02*
X+1329500Y+3722880D01*
X+1345375Y+3707640D01*
X+1408875Y+3707640D01*
X+1424750Y+3722880D01*
X+1424750Y+3799080D01*
X+1488250Y+3768600D02*
X+1520000Y+3799080D01*
X+1520000Y+3707640D01*
X+1678750Y+3799080D02*
X+1599375Y+3799080D01*
X+1599375Y+3768600D01*
X+1662875Y+3768600D01*
X+1678750Y+3753360D01*
X+1678750Y+3722880D01*
X+1662875Y+3707640D01*
X+1615250Y+3707640D01*
X+1599375Y+3722880D01*
X+1197000Y+2360000D02*
X+1196573Y+2370409D01*
X+1193101Y+2391228D01*
X+1185845Y+2412047D01*
X+1174017Y+2432866D01*
X+1155920Y+2453524D01*
X+1135101Y+2469045D01*
X+1114282Y+2479030D01*
X+1093463Y+2484814D01*
X+1072644Y+2486972D01*
X+1070000Y+2487000D01*
X+943000Y+2360000D02*
X+943427Y+2370409D01*
X+946899Y+2391228D01*
X+954155Y+2412047D01*
X+965983Y+2432866D01*
X+984080Y+2453524D01*
X+1004899Y+2469045D01*
X+1025718Y+2479030D01*
X+1046537Y+2484814D01*
X+1067356Y+2486972D01*
X+1070000Y+2487000D01*
X+943000Y+2360000D02*
X+943427Y+2349591D01*
X+946899Y+2328772D01*
X+954155Y+2307953D01*
X+965983Y+2287134D01*
X+984080Y+2266476D01*
X+1004899Y+2250955D01*
X+1025718Y+2240970D01*
X+1046537Y+2235186D01*
X+1067356Y+2233028D01*
X+1070000Y+2233000D01*
X+1197000Y+2360000D02*
X+1196573Y+2349591D01*
X+1193101Y+2328772D01*
X+1185845Y+2307953D01*
X+1174017Y+2287134D01*
X+1155920Y+2266476D01*
X+1135101Y+2250955D01*
X+1114282Y+2240970D01*
X+1093463Y+2235186D01*
X+1072644Y+2233028D01*
X+1070000Y+2233000D01*
X+1133500Y+2360000D02*
X+1133283Y+2365247D01*
X+1131518Y+2375742D01*
X+1127826Y+2386237D01*
X+1121798Y+2396732D01*
X+1112576Y+2407112D01*
X+1102081Y+2414800D01*
X+1091586Y+2419718D01*
X+1081091Y+2422524D01*
X+1070596Y+2423497D01*
X+1070000Y+2423500D01*
X+1006500Y+2360000D02*
X+1006717Y+2365247D01*
X+1008482Y+2375742D01*
X+1012174Y+2386237D01*
X+1018202Y+2396732D01*
X+1027424Y+2407112D01*
X+1037919Y+2414800D01*
X+1048414Y+2419718D01*
X+1058909Y+2422524D01*
X+1069404Y+2423497D01*
X+1070000Y+2423500D01*
X+1006500Y+2360000D02*
X+1006717Y+2354753D01*
X+1008482Y+2344258D01*
X+1012174Y+2333763D01*
X+1018202Y+2323268D01*
X+1027424Y+2312888D01*
X+1037919Y+2305200D01*
X+1048414Y+2300282D01*
X+1058909Y+2297476D01*
X+1069404Y+2296503D01*
X+1070000Y+2296500D01*
X+1133500Y+2360000D02*
X+1133283Y+2354753D01*
X+1131518Y+2344258D01*
X+1127826Y+2333763D01*
X+1121798Y+2323268D01*
X+1112576Y+2312888D01*
X+1102081Y+2305200D01*
X+1091586Y+2300282D01*
X+1081091Y+2297476D01*
X+1070596Y+2296503D01*
X+1070000Y+2296500D01*
X+879500Y+2558120D02*
X+879500Y+2542880D01*
X+895375Y+2527640D01*
X+958875Y+2527640D01*
X+974750Y+2542880D01*
X+974750Y+2619080D01*
X+1038250Y+2588600D02*
X+1070000Y+2619080D01*
X+1070000Y+2527640D01*
X+1228750Y+2558120D02*
X+1133500Y+2558120D01*
X+1197000Y+2619080D01*
X+1197000Y+2527640D01*
X+1306000Y+1158000D02*
X+1306000Y+142000D01*
X+2322000Y+1158000D02*
X+2322000Y+142000D01*
X+1306000Y+142000D02*
X+2322000Y+142000D01*
X+1306000Y+1158000D02*
X+2322000Y+1158000D01*
X+1623500Y+1229120D02*
X+1623500Y+1213880D01*
X+1639375Y+1198640D01*
X+1702875Y+1198640D01*
X+1718750Y+1213880D01*
X+1718750Y+1290080D01*
X+1782250Y+1259600D02*
X+1814000Y+1290080D01*
X+1814000Y+1198640D01*
X+1893375Y+1274840D02*
X+1909250Y+1290080D01*
X+1956875Y+1290080D01*
X+1972750Y+1274840D01*
X+1972750Y+1259600D01*
X+1956875Y+1244360D01*
X+1909250Y+1244360D01*
X+1893375Y+1229120D01*
X+1893375Y+1198640D01*
X+1972750Y+1198640D01*
D28*
X+2937500Y+715000D02*
X+2937457Y+716039D01*
X+2937105Y+718118D01*
X+2936368Y+720197D01*
X+2935164Y+722276D01*
X+2933323Y+724326D01*
X+2931244Y+725829D01*
X+2929165Y+726786D01*
X+2927086Y+727325D01*
X+2925007Y+727500D01*
X+2925000Y+727500D01*
X+2912500Y+715000D02*
X+2912543Y+716039D01*
X+2912895Y+718118D01*
X+2913632Y+720197D01*
X+2914836Y+722276D01*
X+2916677Y+724326D01*
X+2918756Y+725829D01*
X+2920835Y+726786D01*
X+2922914Y+727325D01*
X+2924993Y+727500D01*
X+2925000Y+727500D01*
X+2912500Y+715000D02*
X+2912543Y+713961D01*
X+2912895Y+711882D01*
X+2913632Y+709803D01*
X+2914836Y+707724D01*
X+2916677Y+705674D01*
X+2918756Y+704171D01*
X+2920835Y+703214D01*
X+2922914Y+702675D01*
X+2924993Y+702500D01*
X+2925000Y+702500D01*
X+2937500Y+715000D02*
X+2937457Y+713961D01*
X+2937105Y+711882D01*
X+2936368Y+709803D01*
X+2935164Y+707724D01*
X+2933323Y+705674D01*
X+2931244Y+704171D01*
X+2929165Y+703214D01*
X+2927086Y+702675D01*
X+2925007Y+702500D01*
X+2925000Y+702500D01*
D29*
X+2400000Y+550000D02*
X+2400000Y+230000D01*
X+2900000Y+230000D01*
X+2900000Y+550000D01*
X+2400000Y+550000D01*
D72*
X+2890000Y+550000D02*
X+2900000Y+540000D01*
X+2880000Y+550000D02*
X+2900000Y+530000D01*
X+2870000Y+550000D02*
X+2900000Y+520000D01*
X+2860000Y+550000D02*
X+2900000Y+510000D01*
X+2850000Y+550000D02*
X+2900000Y+500000D01*
X+2840000Y+550000D02*
X+2900000Y+490000D01*
X+2830000Y+550000D02*
X+2900000Y+480000D01*
X+2820000Y+550000D02*
X+2900000Y+470000D01*
X+2810000Y+550000D02*
X+2900000Y+460000D01*
D27*
X+2980480Y+199500D02*
X+3056680Y+199500D01*
X+3071920Y+215375D01*
X+3071920Y+278875D01*
X+3056680Y+294750D01*
X+2980480Y+294750D01*
X+3010960Y+358250D02*
X+2980480Y+390000D01*
X+3071920Y+390000D01*
X+3056680Y+453500D02*
X+2995720Y+453500D01*
X+2980480Y+469375D01*
X+2980480Y+532875D01*
X+2995720Y+548750D01*
X+3056680Y+548750D01*
X+3071920Y+532875D01*
X+3071920Y+469375D01*
X+3056680Y+453500D01*
X+3071920Y+453500D02*
X+2980480Y+548750D01*
X+2566340Y+951580D02*
X+2497760Y+951580D01*
X+2566340Y+1073500D02*
X+2495220Y+1073500D01*
X+2406320Y+819500D02*
X+2406320Y+910940D01*
X+2485695Y+910940D01*
X+2501570Y+895700D01*
X+2501570Y+880460D01*
X+2485695Y+865220D01*
X+2406320Y+865220D01*
X+2485695Y+865220D02*
X+2501570Y+849980D01*
X+2501570Y+819500D01*
X+2565070Y+880460D02*
X+2596820Y+910940D01*
X+2596820Y+819500D01*
X+3417000Y+60000D02*
X+3416573Y+70409D01*
X+3413101Y+91228D01*
X+3405845Y+112047D01*
X+3394017Y+132866D01*
X+3375920Y+153524D01*
X+3355101Y+169045D01*
X+3334282Y+179030D01*
X+3313463Y+184814D01*
X+3292644Y+186972D01*
X+3290000Y+187000D01*
X+3163000Y+60000D02*
X+3163427Y+70409D01*
X+3166899Y+91228D01*
X+3174155Y+112047D01*
X+3185983Y+132866D01*
X+3204080Y+153524D01*
X+3224899Y+169045D01*
X+3245718Y+179030D01*
X+3266537Y+184814D01*
X+3287356Y+186972D01*
X+3290000Y+187000D01*
X+3163000Y+60000D02*
X+3163427Y+49591D01*
X+3166899Y+28772D01*
X+3174155Y+7953D01*
X+3185983Y-12866D01*
X+3204080Y-33524D01*
X+3224899Y-49045D01*
X+3245718Y-59030D01*
X+3266537Y-64814D01*
X+3287356Y-66972D01*
X+3290000Y-67000D01*
X+3417000Y+60000D02*
X+3416573Y+49591D01*
X+3413101Y+28772D01*
X+3405845Y+7953D01*
X+3394017Y-12866D01*
X+3375920Y-33524D01*
X+3355101Y-49045D01*
X+3334282Y-59030D01*
X+3313463Y-64814D01*
X+3292644Y-66972D01*
X+3290000Y-67000D01*
X+3353500Y+60000D02*
X+3353283Y+65247D01*
X+3351518Y+75742D01*
X+3347826Y+86237D01*
X+3341798Y+96732D01*
X+3332576Y+107112D01*
X+3322081Y+114800D01*
X+3311586Y+119718D01*
X+3301091Y+122524D01*
X+3290596Y+123497D01*
X+3290000Y+123500D01*
X+3226500Y+60000D02*
X+3226717Y+65247D01*
X+3228482Y+75742D01*
X+3232174Y+86237D01*
X+3238202Y+96732D01*
X+3247424Y+107112D01*
X+3257919Y+114800D01*
X+3268414Y+119718D01*
X+3278909Y+122524D01*
X+3289404Y+123497D01*
X+3290000Y+123500D01*
X+3226500Y+60000D02*
X+3226717Y+54753D01*
X+3228482Y+44258D01*
X+3232174Y+33763D01*
X+3238202Y+23268D01*
X+3247424Y+12888D01*
X+3257919Y+5200D01*
X+3268414Y+282D01*
X+3278909Y-2524D01*
X+3289404Y-3497D01*
X+3290000Y-3500D01*
X+3353500Y+60000D02*
X+3353283Y+54753D01*
X+3351518Y+44258D01*
X+3347826Y+33763D01*
X+3341798Y+23268D01*
X+3332576Y+12888D01*
X+3322081Y+5200D01*
X+3311586Y+282D01*
X+3301091Y-2524D01*
X+3290596Y-3497D01*
X+3290000Y-3500D01*
X+3099500Y+258120D02*
X+3099500Y+242880D01*
X+3115375Y+227640D01*
X+3178875Y+227640D01*
X+3194750Y+242880D01*
X+3194750Y+319080D01*
X+3242375Y+303840D02*
X+3258250Y+319080D01*
X+3305875Y+319080D01*
X+3321750Y+303840D01*
X+3321750Y+288600D01*
X+3305875Y+273360D01*
X+3321750Y+258120D01*
X+3321750Y+242880D01*
X+3305875Y+227640D01*
X+3258250Y+227640D01*
X+3242375Y+242880D01*
X+3274125Y+273360D02*
X+3305875Y+273360D01*
X+3448750Y+288600D02*
X+3432875Y+273360D01*
X+3385250Y+273360D01*
X+3369375Y+288600D01*
X+3369375Y+303840D01*
X+3385250Y+319080D01*
X+3432875Y+319080D01*
X+3448750Y+303840D01*
X+3448750Y+242880D01*
X+3432875Y+227640D01*
X+3385250Y+227640D01*
X+3737000Y+210000D02*
X+3736573Y+220409D01*
X+3733101Y+241228D01*
X+3725845Y+262047D01*
X+3714017Y+282866D01*
X+3695920Y+303524D01*
X+3675101Y+319045D01*
X+3654282Y+329030D01*
X+3633463Y+334814D01*
X+3612644Y+336972D01*
X+3610000Y+337000D01*
X+3483000Y+210000D02*
X+3483427Y+220409D01*
X+3486899Y+241228D01*
X+3494155Y+262047D01*
X+3505983Y+282866D01*
X+3524080Y+303524D01*
X+3544899Y+319045D01*
X+3565718Y+329030D01*
X+3586537Y+334814D01*
X+3607356Y+336972D01*
X+3610000Y+337000D01*
X+3483000Y+210000D02*
X+3483427Y+199591D01*
X+3486899Y+178772D01*
X+3494155Y+157953D01*
X+3505983Y+137134D01*
X+3524080Y+116476D01*
X+3544899Y+100955D01*
X+3565718Y+90970D01*
X+3586537Y+85186D01*
X+3607356Y+83028D01*
X+3610000Y+83000D01*
X+3737000Y+210000D02*
X+3736573Y+199591D01*
X+3733101Y+178772D01*
X+3725845Y+157953D01*
X+3714017Y+137134D01*
X+3695920Y+116476D01*
X+3675101Y+100955D01*
X+3654282Y+90970D01*
X+3633463Y+85186D01*
X+3612644Y+83028D01*
X+3610000Y+83000D01*
X+3673500Y+210000D02*
X+3673283Y+215247D01*
X+3671518Y+225742D01*
X+3667826Y+236237D01*
X+3661798Y+246732D01*
X+3652576Y+257112D01*
X+3642081Y+264800D01*
X+3631586Y+269718D01*
X+3621091Y+272524D01*
X+3610596Y+273497D01*
X+3610000Y+273500D01*
X+3546500Y+210000D02*
X+3546717Y+215247D01*
X+3548482Y+225742D01*
X+3552174Y+236237D01*
X+3558202Y+246732D01*
X+3567424Y+257112D01*
X+3577919Y+264800D01*
X+3588414Y+269718D01*
X+3598909Y+272524D01*
X+3609404Y+273497D01*
X+3610000Y+273500D01*
X+3546500Y+210000D02*
X+3546717Y+204753D01*
X+3548482Y+194258D01*
X+3552174Y+183763D01*
X+3558202Y+173268D01*
X+3567424Y+162888D01*
X+3577919Y+155200D01*
X+3588414Y+150282D01*
X+3598909Y+147476D01*
X+3609404Y+146503D01*
X+3610000Y+146500D01*
X+3673500Y+210000D02*
X+3673283Y+204753D01*
X+3671518Y+194258D01*
X+3667826Y+183763D01*
X+3661798Y+173268D01*
X+3652576Y+162888D01*
X+3642081Y+155200D01*
X+3631586Y+150282D01*
X+3621091Y+147476D01*
X+3610596Y+146503D01*
X+3610000Y+146500D01*
X+3419500Y+408120D02*
X+3419500Y+392880D01*
X+3435375Y+377640D01*
X+3498875Y+377640D01*
X+3514750Y+392880D01*
X+3514750Y+469080D01*
X+3562375Y+453840D02*
X+3578250Y+469080D01*
X+3625875Y+469080D01*
X+3641750Y+453840D01*
X+3641750Y+438600D01*
X+3625875Y+423360D01*
X+3641750Y+408120D01*
X+3641750Y+392880D01*
X+3625875Y+377640D01*
X+3578250Y+377640D01*
X+3562375Y+392880D01*
X+3594125Y+423360D02*
X+3625875Y+423360D01*
X+3705250Y+423360D02*
X+3689375Y+438600D01*
X+3689375Y+453840D01*
X+3705250Y+469080D01*
X+3752875Y+469080D01*
X+3768750Y+453840D01*
X+3768750Y+438600D01*
X+3752875Y+423360D01*
X+3705250Y+423360D01*
X+3689375Y+408120D01*
X+3689375Y+392880D01*
X+3705250Y+377640D01*
X+3752875Y+377640D01*
X+3768750Y+392880D01*
X+3768750Y+408120D01*
X+3752875Y+423360D01*
X+3869000Y+303000D02*
X+5647000Y+303000D01*
X+5647000Y+557000D01*
X+3869000Y+557000D01*
X+3869000Y+303000D01*
X+4567500Y+201400D02*
X+4567500Y+186160D01*
X+4583375Y+170920D01*
X+4646875Y+170920D01*
X+4662750Y+186160D01*
X+4662750Y+262360D01*
X+4726250Y+231880D02*
X+4758000Y+262360D01*
X+4758000Y+170920D01*
X+4821500Y+186160D02*
X+4821500Y+247120D01*
X+4837375Y+262360D01*
X+4900875Y+262360D01*
X+4916750Y+247120D01*
X+4916750Y+186160D01*
X+4900875Y+170920D01*
X+4837375Y+170920D01*
X+4821500Y+186160D01*
X+4821500Y+170920D02*
X+4916750Y+262360D01*
X+2865000Y+991000D02*
X+3119000Y+991000D01*
X+3119000Y+2007000D01*
X+2865000Y+2007000D01*
X+2865000Y+991000D01*
X+3220600Y+1372000D02*
X+3235840Y+1372000D01*
X+3251080Y+1387875D01*
X+3251080Y+1451375D01*
X+3235840Y+1467250D01*
X+3159640Y+1467250D01*
X+3205360Y+1530750D02*
X+3190120Y+1514875D01*
X+3174880Y+1514875D01*
X+3159640Y+1530750D01*
X+3159640Y+1578375D01*
X+3174880Y+1594250D01*
X+3190120Y+1594250D01*
X+3205360Y+1578375D01*
X+3205360Y+1530750D01*
X+3220600Y+1514875D01*
X+3235840Y+1514875D01*
X+3251080Y+1530750D01*
X+3251080Y+1578375D01*
X+3235840Y+1594250D01*
X+3220600Y+1594250D01*
X+3205360Y+1578375D01*
X+3718440Y+1481220D02*
X+3718440Y+1570120D01*
X+3606680Y+1587900D02*
X+3606680Y+1659020D01*
X+3718440Y+1481220D02*
X+3627000Y+1481220D01*
X+3624460Y+1770780D02*
X+3718440Y+1770780D01*
X+3718440Y+1684420D01*
X+3531750Y+1872380D02*
X+3563500Y+1902860D01*
X+3595250Y+1902860D01*
X+3627000Y+1872380D01*
X+3627000Y+1841900D01*
X+3595250Y+1811420D01*
X+3563500Y+1811420D01*
X+3531750Y+1841900D01*
X+3531750Y+1872380D01*
X+3595250Y+1841900D02*
X+3627000Y+1811420D01*
X+3690500Y+1872380D02*
X+3722250Y+1902860D01*
X+3722250Y+1811420D01*
X+2669420Y+1656340D02*
X+2669420Y+1587760D01*
X+2547500Y+1656340D02*
X+2547500Y+1585220D01*
X+2801500Y+1496320D02*
X+2710060Y+1496320D01*
X+2710060Y+1575695D01*
X+2725300Y+1591570D01*
X+2740540Y+1591570D01*
X+2755780Y+1575695D01*
X+2755780Y+1496320D01*
X+2755780Y+1575695D02*
X+2771020Y+1591570D01*
X+2801500Y+1591570D01*
X+2771020Y+1718570D02*
X+2771020Y+1623320D01*
X+2710060Y+1686820D01*
X+2801500Y+1686820D01*
X+1663580Y+4597660D02*
X+1663580Y+4666240D01*
X+1785500Y+4597660D02*
X+1785500Y+4668780D01*
X+1622940Y+4440180D02*
X+1531500Y+4440180D01*
X+1531500Y+4519555D01*
X+1546740Y+4535430D01*
X+1561980Y+4535430D01*
X+1577220Y+4519555D01*
X+1577220Y+4440180D01*
X+1577220Y+4519555D02*
X+1592460Y+4535430D01*
X+1622940Y+4535430D01*
X+1561980Y+4598930D02*
X+1531500Y+4630680D01*
X+1622940Y+4630680D01*
X+1592460Y+4789430D02*
X+1592460Y+4694180D01*
X+1531500Y+4757680D01*
X+1622940Y+4757680D01*
X+3304420Y+1933340D02*
X+3304420Y+1864760D01*
X+3182500Y+1933340D02*
X+3182500Y+1862220D01*
X+3436500Y+1709820D02*
X+3345060Y+1709820D01*
X+3345060Y+1789195D01*
X+3360300Y+1805070D01*
X+3375540Y+1805070D01*
X+3390780Y+1789195D01*
X+3390780Y+1709820D01*
X+3390780Y+1789195D02*
X+3406020Y+1805070D01*
X+3436500Y+1805070D01*
X+3375540Y+1868570D02*
X+3345060Y+1900320D01*
X+3436500Y+1900320D01*
X+3360300Y+2059070D02*
X+3345060Y+2043195D01*
X+3345060Y+1995570D01*
X+3360300Y+1979695D01*
X+3421260Y+1979695D01*
X+3436500Y+1995570D01*
X+3436500Y+2043195D01*
X+3421260Y+2059070D01*
X+3406020Y+2059070D01*
X+3390780Y+2043195D01*
X+3390780Y+1979695D01*
X+1011000Y+1413000D02*
X+2027000Y+1413000D01*
X+2027000Y+1667000D01*
X+1011000Y+1667000D01*
X+1011000Y+1413000D01*
X+1328500Y+1738120D02*
X+1328500Y+1722880D01*
X+1344375Y+1707640D01*
X+1407875Y+1707640D01*
X+1423750Y+1722880D01*
X+1423750Y+1799080D01*
X+1487250Y+1768600D02*
X+1519000Y+1799080D01*
X+1519000Y+1707640D01*
X+1614250Y+1768600D02*
X+1646000Y+1799080D01*
X+1646000Y+1707640D01*
X+1970300Y+1878420D02*
X+2038880Y+1878420D01*
X+1970300Y+1756500D02*
X+2041420Y+1756500D01*
X+1812820Y+1919060D02*
X+1812820Y+2010500D01*
X+1892195Y+2010500D01*
X+1908070Y+1995260D01*
X+1908070Y+1980020D01*
X+1892195Y+1964780D01*
X+1812820Y+1964780D01*
X+1892195Y+1964780D02*
X+1908070Y+1949540D01*
X+1908070Y+1919060D01*
X+1971570Y+1980020D02*
X+2003320Y+2010500D01*
X+2003320Y+1919060D01*
X+2162070Y+2010500D02*
X+2082695Y+2010500D01*
X+2082695Y+1980020D01*
X+2146195Y+1980020D01*
X+2162070Y+1964780D01*
X+2162070Y+1934300D01*
X+2146195Y+1919060D01*
X+2098570Y+1919060D01*
X+2082695Y+1934300D01*
X+1543660Y+1978420D02*
X+1612240Y+1978420D01*
X+1543660Y+1856500D02*
X+1614780Y+1856500D01*
X+1386180Y+2019060D02*
X+1386180Y+2110500D01*
X+1465555Y+2110500D01*
X+1481430Y+2095260D01*
X+1481430Y+2080020D01*
X+1465555Y+2064780D01*
X+1386180Y+2064780D01*
X+1465555Y+2064780D02*
X+1481430Y+2049540D01*
X+1481430Y+2019060D01*
X+1544930Y+2080020D02*
X+1576680Y+2110500D01*
X+1576680Y+2019060D01*
X+1656055Y+2095260D02*
X+1671930Y+2110500D01*
X+1719555Y+2110500D01*
X+1735430Y+2095260D01*
X+1735430Y+2080020D01*
X+1719555Y+2064780D01*
X+1671930Y+2064780D01*
X+1656055Y+2049540D01*
X+1656055Y+2019060D01*
X+1735430Y+2019060D01*
X+2233660Y+1498420D02*
X+2302240Y+1498420D01*
X+2233660Y+1376500D02*
X+2304780Y+1376500D01*
X+2076180Y+1539060D02*
X+2076180Y+1630500D01*
X+2155555Y+1630500D01*
X+2171430Y+1615260D01*
X+2171430Y+1600020D01*
X+2155555Y+1584780D01*
X+2076180Y+1584780D01*
X+2155555Y+1584780D02*
X+2171430Y+1569540D01*
X+2171430Y+1539060D01*
X+2234930Y+1600020D02*
X+2266680Y+1630500D01*
X+2266680Y+1539060D01*
X+2346055Y+1630500D02*
X+2425430Y+1630500D01*
X+2425430Y+1615260D01*
X+2346055Y+1539060D01*
X+2674780Y+2134440D02*
X+2585880Y+2134440D01*
X+2568100Y+2022680D02*
X+2496980Y+2022680D01*
X+2674780Y+2134440D02*
X+2674780Y+2043000D01*
X+2385220Y+2040460D02*
X+2385220Y+2134440D01*
X+2471580Y+2134440D01*
X+2283620Y+1884250D02*
X+2253140Y+1916000D01*
X+2253140Y+1947750D01*
X+2283620Y+1979500D01*
X+2314100Y+1979500D01*
X+2344580Y+1947750D01*
X+2344580Y+1916000D01*
X+2314100Y+1884250D01*
X+2283620Y+1884250D01*
X+2314100Y+1947750D02*
X+2344580Y+1979500D01*
X+2283620Y+2043000D02*
X+2253140Y+2074750D01*
X+2344580Y+2074750D01*
X+2329340Y+2138250D02*
X+2268380Y+2138250D01*
X+2253140Y+2154125D01*
X+2253140Y+2217625D01*
X+2268380Y+2233500D01*
X+2329340Y+2233500D01*
X+2344580Y+2217625D01*
X+2344580Y+2154125D01*
X+2329340Y+2138250D01*
X+2344580Y+2138250D02*
X+2253140Y+2233500D01*
X+3883000Y+1573000D02*
X+4391000Y+1573000D01*
X+4391000Y+1827000D01*
X+3883000Y+1827000D01*
X+3883000Y+1573000D01*
X+3946500Y+1898120D02*
X+3946500Y+1882880D01*
X+3962375Y+1867640D01*
X+4025875Y+1867640D01*
X+4041750Y+1882880D01*
X+4041750Y+1959080D01*
X+4105250Y+1928600D02*
X+4137000Y+1959080D01*
X+4137000Y+1867640D01*
X+4216375Y+1959080D02*
X+4295750Y+1959080D01*
X+4295750Y+1943840D01*
X+4216375Y+1867640D01*
X+4414780Y+1404440D02*
X+4325880Y+1404440D01*
X+4308100Y+1292680D02*
X+4236980Y+1292680D01*
X+4414780Y+1404440D02*
X+4414780Y+1313000D01*
X+4125220Y+1310460D02*
X+4125220Y+1404440D01*
X+4211580Y+1404440D01*
X+4023620Y+1217750D02*
X+3993140Y+1249500D01*
X+3993140Y+1281250D01*
X+4023620Y+1313000D01*
X+4054100Y+1313000D01*
X+4084580Y+1281250D01*
X+4084580Y+1249500D01*
X+4054100Y+1217750D01*
X+4023620Y+1217750D01*
X+4054100Y+1281250D02*
X+4084580Y+1313000D01*
X+3993140Y+1440000D02*
X+3993140Y+1360625D01*
X+4023620Y+1360625D01*
X+4023620Y+1424125D01*
X+4038860Y+1440000D01*
X+4069340Y+1440000D01*
X+4084580Y+1424125D01*
X+4084580Y+1376500D01*
X+4069340Y+1360625D01*
X+4103660Y+2138420D02*
X+4172240Y+2138420D01*
X+4103660Y+2016500D02*
X+4174780Y+2016500D01*
X+4009680Y+2179060D02*
X+4009680Y+2270500D01*
X+4089055Y+2270500D01*
X+4104930Y+2255260D01*
X+4104930Y+2240020D01*
X+4089055Y+2224780D01*
X+4009680Y+2224780D01*
X+4089055Y+2224780D02*
X+4104930Y+2209540D01*
X+4104930Y+2179060D01*
X+4152555Y+2255260D02*
X+4168430Y+2270500D01*
X+4216055Y+2270500D01*
X+4231930Y+2255260D01*
X+4231930Y+2240020D01*
X+4216055Y+2224780D01*
X+4231930Y+2209540D01*
X+4231930Y+2194300D01*
X+4216055Y+2179060D01*
X+4168430Y+2179060D01*
X+4152555Y+2194300D01*
X+4184305Y+2224780D02*
X+4216055Y+2224780D01*
X+4453000Y+1573000D02*
X+4961000Y+1573000D01*
X+4961000Y+1827000D01*
X+4453000Y+1827000D01*
X+4453000Y+1573000D01*
X+4580000Y+1898120D02*
X+4580000Y+1882880D01*
X+4595875Y+1867640D01*
X+4659375Y+1867640D01*
X+4675250Y+1882880D01*
X+4675250Y+1959080D01*
X+4722875Y+1943840D02*
X+4738750Y+1959080D01*
X+4786375Y+1959080D01*
X+4802250Y+1943840D01*
X+4802250Y+1928600D01*
X+4786375Y+1913360D01*
X+4738750Y+1913360D01*
X+4722875Y+1898120D01*
X+4722875Y+1867640D01*
X+4802250Y+1867640D01*
X+4573660Y+2128420D02*
X+4642240Y+2128420D01*
X+4573660Y+2006500D02*
X+4644780Y+2006500D01*
X+4479680Y+2169060D02*
X+4479680Y+2260500D01*
X+4559055Y+2260500D01*
X+4574930Y+2245260D01*
X+4574930Y+2230020D01*
X+4559055Y+2214780D01*
X+4479680Y+2214780D01*
X+4559055Y+2214780D02*
X+4574930Y+2199540D01*
X+4574930Y+2169060D01*
X+4701930Y+2260500D02*
X+4622555Y+2260500D01*
X+4622555Y+2230020D01*
X+4686055Y+2230020D01*
X+4701930Y+2214780D01*
X+4701930Y+2184300D01*
X+4686055Y+2169060D01*
X+4638430Y+2169060D01*
X+4622555Y+2184300D01*
X+4954780Y+1414440D02*
X+4865880Y+1414440D01*
X+4848100Y+1302680D02*
X+4776980Y+1302680D01*
X+4954780Y+1414440D02*
X+4954780Y+1323000D01*
X+4665220Y+1320460D02*
X+4665220Y+1414440D01*
X+4751580Y+1414440D01*
X+4563620Y+1227750D02*
X+4533140Y+1259500D01*
X+4533140Y+1291250D01*
X+4563620Y+1323000D01*
X+4594100Y+1323000D01*
X+4624580Y+1291250D01*
X+4624580Y+1259500D01*
X+4594100Y+1227750D01*
X+4563620Y+1227750D01*
X+4594100Y+1291250D02*
X+4624580Y+1323000D01*
X+4548380Y+1370625D02*
X+4533140Y+1386500D01*
X+4533140Y+1434125D01*
X+4548380Y+1450000D01*
X+4563620Y+1450000D01*
X+4578860Y+1434125D01*
X+4578860Y+1386500D01*
X+4594100Y+1370625D01*
X+4624580Y+1370625D01*
X+4624580Y+1450000D01*
X+5013000Y+1583000D02*
X+5521000Y+1583000D01*
X+5521000Y+1837000D01*
X+5013000Y+1837000D01*
X+5013000Y+1583000D01*
X+5076500Y+1908120D02*
X+5076500Y+1892880D01*
X+5092375Y+1877640D01*
X+5155875Y+1877640D01*
X+5171750Y+1892880D01*
X+5171750Y+1969080D01*
X+5235250Y+1938600D02*
X+5267000Y+1969080D01*
X+5267000Y+1877640D01*
X+5425750Y+1938600D02*
X+5409875Y+1923360D01*
X+5362250Y+1923360D01*
X+5346375Y+1938600D01*
X+5346375Y+1953840D01*
X+5362250Y+1969080D01*
X+5409875Y+1969080D01*
X+5425750Y+1953840D01*
X+5425750Y+1892880D01*
X+5409875Y+1877640D01*
X+5362250Y+1877640D01*
X+5573000Y+1573000D02*
X+6081000Y+1573000D01*
X+6081000Y+1827000D01*
X+5573000Y+1827000D01*
X+5573000Y+1573000D01*
X+5636500Y+1898120D02*
X+5636500Y+1882880D01*
X+5652375Y+1867640D01*
X+5715875Y+1867640D01*
X+5731750Y+1882880D01*
X+5731750Y+1959080D01*
X+5779375Y+1943840D02*
X+5795250Y+1959080D01*
X+5842875Y+1959080D01*
X+5858750Y+1943840D01*
X+5858750Y+1928600D01*
X+5842875Y+1913360D01*
X+5795250Y+1913360D01*
X+5779375Y+1898120D01*
X+5779375Y+1867640D01*
X+5858750Y+1867640D01*
X+5890500Y+1882880D02*
X+5890500Y+1943840D01*
X+5906375Y+1959080D01*
X+5969875Y+1959080D01*
X+5985750Y+1943840D01*
X+5985750Y+1882880D01*
X+5969875Y+1867640D01*
X+5906375Y+1867640D01*
X+5890500Y+1882880D01*
X+5890500Y+1867640D02*
X+5985750Y+1959080D01*
X+5474780Y+1394440D02*
X+5385880Y+1394440D01*
X+5368100Y+1282680D02*
X+5296980Y+1282680D01*
X+5474780Y+1394440D02*
X+5474780Y+1303000D01*
X+5185220Y+1300460D02*
X+5185220Y+1394440D01*
X+5271580Y+1394440D01*
X+5083620Y+1207750D02*
X+5053140Y+1239500D01*
X+5053140Y+1271250D01*
X+5083620Y+1303000D01*
X+5114100Y+1303000D01*
X+5144580Y+1271250D01*
X+5144580Y+1239500D01*
X+5114100Y+1207750D01*
X+5083620Y+1207750D01*
X+5114100Y+1271250D02*
X+5144580Y+1303000D01*
X+5068380Y+1350625D02*
X+5053140Y+1366500D01*
X+5053140Y+1414125D01*
X+5068380Y+1430000D01*
X+5083620Y+1430000D01*
X+5098860Y+1414125D01*
X+5114100Y+1430000D01*
X+5129340Y+1430000D01*
X+5144580Y+1414125D01*
X+5144580Y+1366500D01*
X+5129340Y+1350625D01*
X+5098860Y+1382375D02*
X+5098860Y+1414125D01*
X+5994780Y+1384440D02*
X+5905880Y+1384440D01*
X+5888100Y+1272680D02*
X+5816980Y+1272680D01*
X+5994780Y+1384440D02*
X+5994780Y+1293000D01*
X+5705220Y+1290460D02*
X+5705220Y+1384440D01*
X+5791580Y+1384440D01*
X+5603620Y+1197750D02*
X+5573140Y+1229500D01*
X+5573140Y+1261250D01*
X+5603620Y+1293000D01*
X+5634100Y+1293000D01*
X+5664580Y+1261250D01*
X+5664580Y+1229500D01*
X+5634100Y+1197750D01*
X+5603620Y+1197750D01*
X+5634100Y+1261250D02*
X+5664580Y+1293000D01*
X+5634100Y+1420000D02*
X+5634100Y+1324750D01*
X+5573140Y+1388250D01*
X+5664580Y+1388250D01*
X+5093660Y+2128420D02*
X+5162240Y+2128420D01*
X+5093660Y+2006500D02*
X+5164780Y+2006500D01*
X+4999680Y+2169060D02*
X+4999680Y+2260500D01*
X+5079055Y+2260500D01*
X+5094930Y+2245260D01*
X+5094930Y+2230020D01*
X+5079055Y+2214780D01*
X+4999680Y+2214780D01*
X+5079055Y+2214780D02*
X+5094930Y+2199540D01*
X+5094930Y+2169060D01*
X+5221930Y+2245260D02*
X+5206055Y+2260500D01*
X+5158430Y+2260500D01*
X+5142555Y+2245260D01*
X+5142555Y+2184300D01*
X+5158430Y+2169060D01*
X+5206055Y+2169060D01*
X+5221930Y+2184300D01*
X+5221930Y+2199540D01*
X+5206055Y+2214780D01*
X+5142555Y+2214780D01*
X+5573660Y+2128420D02*
X+5642240Y+2128420D01*
X+5573660Y+2006500D02*
X+5644780Y+2006500D01*
X+5479680Y+2169060D02*
X+5479680Y+2260500D01*
X+5559055Y+2260500D01*
X+5574930Y+2245260D01*
X+5574930Y+2230020D01*
X+5559055Y+2214780D01*
X+5479680Y+2214780D01*
X+5559055Y+2214780D02*
X+5574930Y+2199540D01*
X+5574930Y+2169060D01*
X+5622555Y+2260500D02*
X+5701930Y+2260500D01*
X+5701930Y+2245260D01*
X+5622555Y+2169060D01*
D73*
X+4288100Y+679500D02*
X+4287969Y+682658D01*
X+4286903Y+688976D01*
X+4284672Y+695294D01*
X+4281027Y+701612D01*
X+4275452Y+707851D01*
X+4269134Y+712447D01*
X+4262816Y+715380D01*
X+4256498Y+717042D01*
X+4250180Y+717600D01*
X+4250000Y+717600D01*
X+4211900Y+679500D02*
X+4212031Y+682658D01*
X+4213097Y+688976D01*
X+4215328Y+695294D01*
X+4218973Y+701612D01*
X+4224548Y+707851D01*
X+4230866Y+712447D01*
X+4237184Y+715380D01*
X+4243502Y+717042D01*
X+4249820Y+717600D01*
X+4250000Y+717600D01*
X+4211900Y+679500D02*
X+4212031Y+676342D01*
X+4213097Y+670024D01*
X+4215328Y+663706D01*
X+4218973Y+657388D01*
X+4224548Y+651149D01*
X+4230866Y+646553D01*
X+4237184Y+643620D01*
X+4243502Y+641958D01*
X+4249820Y+641400D01*
X+4250000Y+641400D01*
X+4288100Y+679500D02*
X+4287969Y+676342D01*
X+4286903Y+670024D01*
X+4284672Y+663706D01*
X+4281027Y+657388D01*
X+4275452Y+651149D01*
X+4269134Y+646553D01*
X+4262816Y+643620D01*
X+4256498Y+641958D01*
X+4250180Y+641400D01*
X+4250000Y+641400D01*
D30*
X+4100750Y+769340D02*
X+4227593Y+769340D01*
X+4799250Y+769340D02*
X+4799250Y+970000D01*
X+4675191Y+970000D01*
X+4100750Y+970000D02*
X+4100750Y+769340D01*
X+4672407Y+769340D02*
X+4799250Y+769340D01*
X+4624809Y+970000D02*
X+4475191Y+970000D01*
X+4472407Y+769340D02*
X+4627593Y+769340D01*
X+4424809Y+970000D02*
X+4275191Y+970000D01*
X+4224809Y+970000D02*
X+4100750Y+970000D01*
X+4272407Y+769340D02*
X+4427593Y+769340D01*
D27*
X+4323000Y+1038580D02*
X+4323000Y+1023340D01*
X+4338875Y+1008100D01*
X+4402375Y+1008100D01*
X+4418250Y+1023340D01*
X+4418250Y+1099540D01*
X+4465875Y+1099540D02*
X+4545250Y+1099540D01*
X+4545250Y+1084300D01*
X+4465875Y+1008100D01*
X+1609000Y+2833000D02*
X+2117000Y+2833000D01*
X+2117000Y+3087000D01*
X+1609000Y+3087000D01*
X+1609000Y+2833000D01*
X+1672500Y+3158120D02*
X+1672500Y+3142880D01*
X+1688375Y+3127640D01*
X+1751875Y+3127640D01*
X+1767750Y+3142880D01*
X+1767750Y+3219080D01*
X+1815375Y+3203840D02*
X+1831250Y+3219080D01*
X+1878875Y+3219080D01*
X+1894750Y+3203840D01*
X+1894750Y+3188600D01*
X+1878875Y+3173360D01*
X+1831250Y+3173360D01*
X+1815375Y+3158120D01*
X+1815375Y+3127640D01*
X+1894750Y+3127640D01*
X+1958250Y+3188600D02*
X+1990000Y+3219080D01*
X+1990000Y+3127640D01*
X+1813660Y+2638420D02*
X+1882240Y+2638420D01*
X+1813660Y+2516500D02*
X+1884780Y+2516500D01*
X+1719680Y+2679060D02*
X+1719680Y+2770500D01*
X+1799055Y+2770500D01*
X+1814930Y+2755260D01*
X+1814930Y+2740020D01*
X+1799055Y+2724780D01*
X+1719680Y+2724780D01*
X+1799055Y+2724780D02*
X+1814930Y+2709540D01*
X+1814930Y+2679060D01*
X+1862555Y+2755260D02*
X+1878430Y+2770500D01*
X+1926055Y+2770500D01*
X+1941930Y+2755260D01*
X+1941930Y+2740020D01*
X+1926055Y+2724780D01*
X+1878430Y+2724780D01*
X+1862555Y+2709540D01*
X+1862555Y+2679060D01*
X+1941930Y+2679060D01*
X+3763000Y+2823000D02*
X+4271000Y+2823000D01*
X+4271000Y+3077000D01*
X+3763000Y+3077000D01*
X+3763000Y+2823000D01*
X+3890000Y+3148120D02*
X+3890000Y+3132880D01*
X+3905875Y+3117640D01*
X+3969375Y+3117640D01*
X+3985250Y+3132880D01*
X+3985250Y+3209080D01*
X+4112250Y+3193840D02*
X+4096375Y+3209080D01*
X+4048750Y+3209080D01*
X+4032875Y+3193840D01*
X+4032875Y+3132880D01*
X+4048750Y+3117640D01*
X+4096375Y+3117640D01*
X+4112250Y+3132880D01*
X+4112250Y+3148120D01*
X+4096375Y+3163360D01*
X+4032875Y+3163360D01*
X+4000300Y+2598420D02*
X+4068880Y+2598420D01*
X+4000300Y+2476500D02*
X+4071420Y+2476500D01*
X+3842820Y+2639060D02*
X+3842820Y+2730500D01*
X+3922195Y+2730500D01*
X+3938070Y+2715260D01*
X+3938070Y+2700020D01*
X+3922195Y+2684780D01*
X+3842820Y+2684780D01*
X+3922195Y+2684780D02*
X+3938070Y+2669540D01*
X+3938070Y+2639060D01*
X+4001570Y+2700020D02*
X+4033320Y+2730500D01*
X+4033320Y+2639060D01*
X+4128570Y+2700020D02*
X+4160320Y+2730500D01*
X+4160320Y+2639060D01*
X+4453000Y+2823000D02*
X+4961000Y+2823000D01*
X+4961000Y+3077000D01*
X+4453000Y+3077000D01*
X+4453000Y+2823000D01*
X+4516500Y+3148120D02*
X+4516500Y+3132880D01*
X+4532375Y+3117640D01*
X+4595875Y+3117640D01*
X+4611750Y+3132880D01*
X+4611750Y+3209080D01*
X+4675250Y+3178600D02*
X+4707000Y+3209080D01*
X+4707000Y+3117640D01*
X+4802250Y+3163360D02*
X+4786375Y+3178600D01*
X+4786375Y+3193840D01*
X+4802250Y+3209080D01*
X+4849875Y+3209080D01*
X+4865750Y+3193840D01*
X+4865750Y+3178600D01*
X+4849875Y+3163360D01*
X+4802250Y+3163360D01*
X+4786375Y+3148120D01*
X+4786375Y+3132880D01*
X+4802250Y+3117640D01*
X+4849875Y+3117640D01*
X+4865750Y+3132880D01*
X+4865750Y+3148120D01*
X+4849875Y+3163360D01*
X+4640300Y+2618420D02*
X+4708880Y+2618420D01*
X+4640300Y+2496500D02*
X+4711420Y+2496500D01*
X+4546320Y+2659060D02*
X+4546320Y+2750500D01*
X+4625695Y+2750500D01*
X+4641570Y+2735260D01*
X+4641570Y+2720020D01*
X+4625695Y+2704780D01*
X+4546320Y+2704780D01*
X+4625695Y+2704780D02*
X+4641570Y+2689540D01*
X+4641570Y+2659060D01*
X+4705070Y+2704780D02*
X+4689195Y+2720020D01*
X+4689195Y+2735260D01*
X+4705070Y+2750500D01*
X+4752695Y+2750500D01*
X+4768570Y+2735260D01*
X+4768570Y+2720020D01*
X+4752695Y+2704780D01*
X+4705070Y+2704780D01*
X+4689195Y+2689540D01*
X+4689195Y+2674300D01*
X+4705070Y+2659060D01*
X+4752695Y+2659060D01*
X+4768570Y+2674300D01*
X+4768570Y+2689540D01*
X+4752695Y+2704780D01*
X+2303000Y+2833000D02*
X+2811000Y+2833000D01*
X+2811000Y+3087000D01*
X+2303000Y+3087000D01*
X+2303000Y+2833000D01*
X+2430000Y+3158120D02*
X+2430000Y+3142880D01*
X+2445875Y+3127640D01*
X+2509375Y+3127640D01*
X+2525250Y+3142880D01*
X+2525250Y+3219080D01*
X+2652250Y+3158120D02*
X+2557000Y+3158120D01*
X+2620500Y+3219080D01*
X+2620500Y+3127640D01*
X+2503660Y+2628420D02*
X+2572240Y+2628420D01*
X+2503660Y+2506500D02*
X+2574780Y+2506500D01*
X+2346180Y+2669060D02*
X+2346180Y+2760500D01*
X+2425555Y+2760500D01*
X+2441430Y+2745260D01*
X+2441430Y+2730020D01*
X+2425555Y+2714780D01*
X+2346180Y+2714780D01*
X+2425555Y+2714780D02*
X+2441430Y+2699540D01*
X+2441430Y+2669060D01*
X+2504930Y+2730020D02*
X+2536680Y+2760500D01*
X+2536680Y+2669060D01*
X+2600180Y+2684300D02*
X+2600180Y+2745260D01*
X+2616055Y+2760500D01*
X+2679555Y+2760500D01*
X+2695430Y+2745260D01*
X+2695430Y+2684300D01*
X+2679555Y+2669060D01*
X+2616055Y+2669060D01*
X+2600180Y+2684300D01*
X+2600180Y+2669060D02*
X+2695430Y+2760500D01*
X+2963000Y+2833000D02*
X+3471000Y+2833000D01*
X+3471000Y+3087000D01*
X+2963000Y+3087000D01*
X+2963000Y+2833000D01*
X+3090000Y+3158120D02*
X+3090000Y+3142880D01*
X+3105875Y+3127640D01*
X+3169375Y+3127640D01*
X+3185250Y+3142880D01*
X+3185250Y+3219080D01*
X+3312250Y+3219080D02*
X+3232875Y+3219080D01*
X+3232875Y+3188600D01*
X+3296375Y+3188600D01*
X+3312250Y+3173360D01*
X+3312250Y+3142880D01*
X+3296375Y+3127640D01*
X+3248750Y+3127640D01*
X+3232875Y+3142880D01*
X+3173660Y+2608420D02*
X+3242240Y+2608420D01*
X+3173660Y+2486500D02*
X+3244780Y+2486500D01*
X+3016180Y+2649060D02*
X+3016180Y+2740500D01*
X+3095555Y+2740500D01*
X+3111430Y+2725260D01*
X+3111430Y+2710020D01*
X+3095555Y+2694780D01*
X+3016180Y+2694780D01*
X+3095555Y+2694780D02*
X+3111430Y+2679540D01*
X+3111430Y+2649060D01*
X+3174930Y+2710020D02*
X+3206680Y+2740500D01*
X+3206680Y+2649060D01*
X+3286055Y+2725260D02*
X+3301930Y+2740500D01*
X+3349555Y+2740500D01*
X+3365430Y+2725260D01*
X+3365430Y+2710020D01*
X+3349555Y+2694780D01*
X+3365430Y+2679540D01*
X+3365430Y+2664300D01*
X+3349555Y+2649060D01*
X+3301930Y+2649060D01*
X+3286055Y+2664300D01*
X+3317805Y+2694780D02*
X+3349555Y+2694780D01*
X+5093000Y+2823000D02*
X+5601000Y+2823000D01*
X+5601000Y+3077000D01*
X+5093000Y+3077000D01*
X+5093000Y+2823000D01*
X+5220000Y+3148120D02*
X+5220000Y+3132880D01*
X+5235875Y+3117640D01*
X+5299375Y+3117640D01*
X+5315250Y+3132880D01*
X+5315250Y+3209080D01*
X+5378750Y+3178600D02*
X+5410500Y+3209080D01*
X+5410500Y+3117640D01*
X+5253660Y+2618420D02*
X+5322240Y+2618420D01*
X+5253660Y+2496500D02*
X+5324780Y+2496500D01*
X+5159680Y+2659060D02*
X+5159680Y+2750500D01*
X+5239055Y+2750500D01*
X+5254930Y+2735260D01*
X+5254930Y+2720020D01*
X+5239055Y+2704780D01*
X+5159680Y+2704780D01*
X+5239055Y+2704780D02*
X+5254930Y+2689540D01*
X+5254930Y+2659060D01*
X+5381930Y+2720020D02*
X+5366055Y+2704780D01*
X+5318430Y+2704780D01*
X+5302555Y+2720020D01*
X+5302555Y+2735260D01*
X+5318430Y+2750500D01*
X+5366055Y+2750500D01*
X+5381930Y+2735260D01*
X+5381930Y+2674300D01*
X+5366055Y+2659060D01*
X+5318430Y+2659060D01*
X+4498100Y+3339040D02*
X+4498100Y+3278080D01*
X+4498100Y+3369520D02*
X+4498100Y+3369520D01*
X+4561600Y+3278080D02*
X+4561600Y+3339040D01*
X+4561600Y+3323800D02*
X+4574300Y+3339040D01*
X+4625100Y+3339040D01*
X+4637800Y+3323800D01*
X+4637800Y+3278080D01*
X+4663200Y+3262840D02*
X+4663200Y+3339040D01*
X+4663200Y+3323800D02*
X+4675900Y+3339040D01*
X+4726700Y+3339040D01*
X+4739400Y+3323800D01*
X+4739400Y+3308560D01*
X+4726700Y+3293320D01*
X+4675900Y+3293320D01*
X+4663200Y+3308560D01*
X+4764800Y+3339040D02*
X+4764800Y+3293320D01*
X+4777500Y+3278080D01*
X+4828300Y+3278080D01*
X+4841000Y+3293320D01*
X+4841000Y+3278080D02*
X+4841000Y+3339040D01*
X+4879100Y+3369520D02*
X+4879100Y+3293320D01*
X+4891800Y+3278080D01*
X+4929900Y+3278080D01*
X+4942600Y+3293320D01*
X+4866400Y+3339040D02*
X+4929900Y+3339040D01*
X+2313500Y+3349040D02*
X+2262700Y+3349040D01*
X+2250000Y+3333800D01*
X+2262700Y+3318560D01*
X+2313500Y+3318560D01*
X+2326200Y+3303320D01*
X+2313500Y+3288080D01*
X+2250000Y+3288080D01*
X+2351600Y+3349040D02*
X+2351600Y+3303320D01*
X+2364300Y+3288080D01*
X+2389700Y+3318560D01*
X+2415100Y+3288080D01*
X+2427800Y+3303320D01*
X+2427800Y+3349040D01*
X+2491300Y+3349040D02*
X+2491300Y+3288080D01*
X+2491300Y+3379520D02*
X+2491300Y+3379520D01*
X+2567500Y+3379520D02*
X+2567500Y+3303320D01*
X+2580200Y+3288080D01*
X+2618300Y+3288080D01*
X+2631000Y+3303320D01*
X+2554800Y+3349040D02*
X+2618300Y+3349040D01*
X+2732600Y+3333800D02*
X+2719900Y+3349040D01*
X+2669100Y+3349040D01*
X+2656400Y+3333800D01*
X+2656400Y+3303320D01*
X+2669100Y+3288080D01*
X+2719900Y+3288080D01*
X+2732600Y+3303320D01*
X+2834200Y+3288080D02*
X+2834200Y+3333800D01*
X+2821500Y+3349040D01*
X+2770700Y+3349040D01*
X+2758000Y+3333800D01*
X+2758000Y+3379520D02*
X+2758000Y+3288080D01*
X+2859600Y+3318560D02*
X+2935800Y+3318560D01*
X+2935800Y+3333800D01*
X+2923100Y+3349040D01*
X+2872300Y+3349040D01*
X+2859600Y+3333800D01*
X+2859600Y+3303320D01*
X+2872300Y+3288080D01*
X+2923100Y+3288080D01*
X+3024700Y+3349040D02*
X+2973900Y+3349040D01*
X+2961200Y+3333800D01*
X+2973900Y+3318560D01*
X+3024700Y+3318560D01*
X+3037400Y+3303320D01*
X+3024700Y+3288080D01*
X+2961200Y+3288080D01*
X+970800Y+668560D02*
X+996200Y+668560D01*
X+996200Y+638080D01*
X+945400Y+638080D01*
X+920000Y+668560D01*
X+920000Y+699040D01*
X+945400Y+729520D01*
X+983500Y+729520D01*
X+996200Y+714280D01*
X+1021600Y+638080D02*
X+1021600Y+729520D01*
X+1097800Y+638080D01*
X+1097800Y+729520D01*
X+1123200Y+638080D02*
X+1123200Y+729520D01*
X+1174000Y+729520D01*
X+1199400Y+699040D01*
X+1199400Y+668560D01*
X+1174000Y+638080D01*
X+1123200Y+638080D01*
X+1848340Y+47460D02*
X+1924540Y+47460D01*
X+1886440Y+77940D02*
X+1886440Y+16980D01*
X+1975340Y+62700D02*
X+2000740Y+93180D01*
X+2000740Y+1740D01*
X+2064240Y+77940D02*
X+2076940Y+93180D01*
X+2115040Y+93180D01*
X+2127740Y+77940D01*
X+2127740Y+62700D01*
X+2115040Y+47460D01*
X+2076940Y+47460D01*
X+2064240Y+32220D01*
X+2064240Y+1740D01*
X+2127740Y+1740D01*
X+2153140Y+93180D02*
X+2153140Y+47460D01*
X+2191240Y+1740D01*
X+2229340Y+47460D01*
X+2229340Y+93180D01*
X+1280000Y+3893800D02*
X+1356200Y+3893800D01*
X+1318100Y+3924280D02*
X+1318100Y+3863320D01*
X+1394300Y+3924280D02*
X+1407000Y+3939520D01*
X+1445100Y+3939520D01*
X+1457800Y+3924280D01*
X+1457800Y+3909040D01*
X+1445100Y+3893800D01*
X+1457800Y+3878560D01*
X+1457800Y+3863320D01*
X+1445100Y+3848080D01*
X+1407000Y+3848080D01*
X+1394300Y+3863320D01*
X+1419700Y+3893800D02*
X+1445100Y+3893800D01*
X+1521300Y+3863320D02*
X+1534000Y+3863320D01*
X+1534000Y+3848080D01*
X+1521300Y+3848080D01*
X+1521300Y+3863320D01*
X+1597500Y+3924280D02*
X+1610200Y+3939520D01*
X+1648300Y+3939520D01*
X+1661000Y+3924280D01*
X+1661000Y+3909040D01*
X+1648300Y+3893800D01*
X+1661000Y+3878560D01*
X+1661000Y+3863320D01*
X+1648300Y+3848080D01*
X+1610200Y+3848080D01*
X+1597500Y+3863320D01*
X+1622900Y+3893800D02*
X+1648300Y+3893800D01*
X+1686400Y+3939520D02*
X+1686400Y+3893800D01*
X+1724500Y+3848080D01*
X+1762600Y+3893800D01*
X+1762600Y+3939520D01*
X+920000Y+2123800D02*
X+996200Y+2123800D01*
X+958100Y+2154280D02*
X+958100Y+2093320D01*
X+1097800Y+2169520D02*
X+1034300Y+2169520D01*
X+1034300Y+2139040D01*
X+1085100Y+2139040D01*
X+1097800Y+2123800D01*
X+1097800Y+2093320D01*
X+1085100Y+2078080D01*
X+1047000Y+2078080D01*
X+1034300Y+2093320D01*
X+1123200Y+2169520D02*
X+1123200Y+2123800D01*
X+1161300Y+2078080D01*
X+1199400Y+2123800D01*
X+1199400Y+2169520D01*
X+3770000Y+939520D02*
X+3770000Y+848080D01*
X+3846200Y+848080D01*
X+3947800Y+863320D02*
X+3935100Y+848080D01*
X+3897000Y+848080D01*
X+3871600Y+878560D01*
X+3871600Y+909040D01*
X+3897000Y+939520D01*
X+3935100Y+939520D01*
X+3947800Y+924280D01*
X+3973200Y+848080D02*
X+3973200Y+939520D01*
X+4024000Y+939520D01*
X+4049400Y+909040D01*
X+4049400Y+878560D01*
X+4024000Y+848080D01*
X+3973200Y+848080D01*
X+3180080Y+528320D02*
X+3180080Y+589280D01*
X+3180080Y+574040D02*
X+3192780Y+589280D01*
X+3218180Y+558800D01*
X+3243580Y+589280D01*
X+3256280Y+574040D01*
X+3256280Y+528320D01*
X+3281680Y+574040D02*
X+3294380Y+589280D01*
X+3345180Y+589280D01*
X+3357880Y+574040D01*
X+3357880Y+543560D01*
X+3345180Y+528320D01*
X+3294380Y+528320D01*
X+3281680Y+543560D01*
X+3281680Y+574040D01*
X+3395980Y+619760D02*
X+3395980Y+543560D01*
X+3408680Y+528320D01*
X+3446780Y+528320D01*
X+3459480Y+543560D01*
X+3383280Y+589280D02*
X+3446780Y+589280D01*
X+3484880Y+574040D02*
X+3497580Y+589280D01*
X+3548380Y+589280D01*
X+3561080Y+574040D01*
X+3561080Y+543560D01*
X+3548380Y+528320D01*
X+3497580Y+528320D01*
X+3484880Y+543560D01*
X+3484880Y+574040D01*
X+3586480Y+528320D02*
X+3586480Y+589280D01*
X+3586480Y+574040D02*
X+3599180Y+589280D01*
X+3649980Y+589280D01*
X+3662680Y+574040D01*
X+2931160Y+944880D02*
X+2880360Y+944880D01*
X+2867660Y+929640D01*
X+2880360Y+914400D01*
X+2931160Y+914400D01*
X+2943860Y+899160D01*
X+2931160Y+883920D01*
X+2867660Y+883920D01*
X+2969260Y+914400D02*
X+3045460Y+914400D01*
X+3045460Y+929640D01*
X+3032760Y+944880D01*
X+2981960Y+944880D01*
X+2969260Y+929640D01*
X+2969260Y+899160D01*
X+2981960Y+883920D01*
X+3032760Y+883920D01*
X+3070860Y+883920D02*
X+3070860Y+944880D01*
X+3070860Y+929640D02*
X+3083560Y+944880D01*
X+3134360Y+944880D01*
X+3147060Y+929640D01*
X+3147060Y+883920D01*
X+3235960Y+944880D02*
X+3185160Y+944880D01*
X+3172460Y+929640D01*
X+3185160Y+914400D01*
X+3235960Y+914400D01*
X+3248660Y+899160D01*
X+3235960Y+883920D01*
X+3172460Y+883920D01*
X+3274060Y+929640D02*
X+3286760Y+944880D01*
X+3337560Y+944880D01*
X+3350260Y+929640D01*
X+3350260Y+899160D01*
X+3337560Y+883920D01*
X+3286760Y+883920D01*
X+3274060Y+899160D01*
X+3274060Y+929640D01*
X+3375660Y+883920D02*
X+3375660Y+944880D01*
X+3375660Y+929640D02*
X+3388360Y+944880D01*
X+3439160Y+944880D01*
X+3451860Y+929640D01*
X+1008380Y+1371600D02*
X+957580Y+1371600D01*
X+944880Y+1356360D01*
X+957580Y+1341120D01*
X+1008380Y+1341120D01*
X+1021080Y+1325880D01*
X+1008380Y+1310640D01*
X+944880Y+1310640D01*
X+1046480Y+1341120D02*
X+1122680Y+1341120D01*
X+1122680Y+1356360D01*
X+1109980Y+1371600D01*
X+1059180Y+1371600D01*
X+1046480Y+1356360D01*
X+1046480Y+1325880D01*
X+1059180Y+1310640D01*
X+1109980Y+1310640D01*
X+1148080Y+1310640D02*
X+1148080Y+1371600D01*
X+1148080Y+1356360D02*
X+1160780Y+1371600D01*
X+1211580Y+1371600D01*
X+1224280Y+1356360D01*
X+1224280Y+1310640D01*
X+1313180Y+1371600D02*
X+1262380Y+1371600D01*
X+1249680Y+1356360D01*
X+1262380Y+1341120D01*
X+1313180Y+1341120D01*
X+1325880Y+1325880D01*
X+1313180Y+1310640D01*
X+1249680Y+1310640D01*
X+1351280Y+1356360D02*
X+1363980Y+1371600D01*
X+1414780Y+1371600D01*
X+1427480Y+1356360D01*
X+1427480Y+1325880D01*
X+1414780Y+1310640D01*
X+1363980Y+1310640D01*
X+1351280Y+1325880D01*
X+1351280Y+1356360D01*
X+1452880Y+1310640D02*
X+1452880Y+1371600D01*
X+1452880Y+1356360D02*
X+1465580Y+1371600D01*
X+1516380Y+1371600D01*
X+1529080Y+1356360D01*
X+4617720Y+2395220D02*
X+4617720Y+2303780D01*
X+4693920Y+2303780D01*
X+4795520Y+2303780D02*
X+4719320Y+2303780D01*
X+4719320Y+2395220D01*
X+4795520Y+2395220D01*
X+4719320Y+2349500D02*
X+4770120Y+2349500D01*
X+4820920Y+2303780D02*
X+4820920Y+2395220D01*
X+4871720Y+2395220D01*
X+4897120Y+2364740D01*
X+4897120Y+2334260D01*
X+4871720Y+2303780D01*
X+4820920Y+2303780D01*
X+4986020Y+2364740D02*
X+4935220Y+2364740D01*
X+4922520Y+2349500D01*
X+4935220Y+2334260D01*
X+4986020Y+2334260D01*
X+4998720Y+2319020D01*
X+4986020Y+2303780D01*
X+4922520Y+2303780D01*
M02*
