G04 PROTEUS GERBER X2 FILE*
%TF.GenerationSoftware,Labcenter,Proteus,8.12-SP0-Build30713*%
%TF.CreationDate,2021-08-06T04:24:26+00:00*%
%TF.FileFunction,Copper,L1,Top*%
%TF.FilePolarity,Positive*%
%TF.Part,Single*%
%TF.SameCoordinates,{793229e0-97f6-4af7-a571-5be770182b8e}*%
%FSLAX45Y45*%
%MOMM*%
G01*
%TA.AperFunction,Conductor*%
%ADD10C,0.381000*%
%ADD11C,0.203200*%
%TA.AperFunction,ViaPad*%
%ADD12C,1.016000*%
%ADD13C,0.508000*%
%TA.AperFunction,ComponentPad*%
%ADD14R,1.270000X1.270000*%
%ADD15C,1.524000*%
%TA.AperFunction,ComponentPad*%
%ADD16C,2.032000*%
%TA.AperFunction,ComponentPad*%
%ADD17C,3.048000*%
%TA.AperFunction,SMDPad,CuDef*%
%ADD18R,0.609600X1.549400*%
%ADD19R,3.149600X2.438400*%
%TA.AperFunction,SMDPad,CuDef*%
%ADD70R,1.016000X1.270000*%
%TA.AperFunction,ComponentPad*%
%ADD71R,2.032000X2.032000*%
%TA.AperFunction,SMDPad,CuDef*%
%ADD20R,1.016000X0.889000*%
%TA.AperFunction,SMDPad,CuDef*%
%ADD21R,1.270000X1.016000*%
%TA.AperFunction,SMDPad,CuDef*%
%ADD22R,0.889000X1.016000*%
%TA.AperFunction,WasherPad*%
%ADD23C,1.397000*%
%TA.AperFunction,Profile*%
%ADD24C,0.203200*%
%TD.AperFunction*%
D10*
X+2291905Y+192055D02*
X+2291905Y+102055D01*
X+2459920Y+102055D01*
X+2463215Y+98760D01*
X+2459500Y+120000D01*
X+4144000Y+2950000D02*
X+4144000Y+3127000D01*
X+3090000Y+3127000D01*
X+3090000Y+2960000D01*
X+1736000Y+2960000D02*
X+1736000Y+3127000D01*
X+2263000Y+3127000D01*
X+2430000Y+2960000D01*
X+4580000Y+2950000D02*
X+4580000Y+3127000D01*
X+5043000Y+3127000D01*
X+5220000Y+2950000D01*
X+4144000Y+2950000D02*
X+4144001Y+2950001D01*
X+4325500Y+2950001D01*
X+4325501Y+2950000D01*
X+4580000Y+2950000D01*
X+3690500Y+2111000D02*
X+4030000Y+2111000D01*
X+4071500Y+2238000D02*
X+4030000Y+2196500D01*
X+4030000Y+2111000D01*
X+5020000Y+2238000D02*
X+4500000Y+2238000D01*
X+4500000Y+2174500D01*
X+4071500Y+2238000D02*
X+4452500Y+2238000D01*
X+4452500Y+2174500D01*
X+4500000Y+2174500D01*
X+4500000Y+2070000D01*
X+5020000Y+2238000D02*
X+5500000Y+2238000D01*
X+5500000Y+2070000D01*
X+1214000Y+1793500D02*
X+1595000Y+1793500D01*
X+1595000Y+2238000D01*
X+1658500Y+2301500D01*
X+2547500Y+2301500D01*
X+4030000Y+2111000D02*
X+4030000Y+2080000D01*
X+5020000Y+2174500D02*
X+5020000Y+2238000D01*
X+5020000Y+2174500D02*
X+5020000Y+2070000D01*
X+1341000Y+1920000D02*
X+1470000Y+1920000D01*
X+1138000Y+1540000D02*
X+1138000Y+1920000D01*
X+1341000Y+1920000D01*
X+2992000Y+1880000D02*
X+2801500Y+1880000D01*
X+2738000Y+1816500D01*
X+2738000Y+1730000D01*
X+2611000Y+1730000D01*
X+2426640Y+1010000D02*
X+2426640Y+1158500D01*
X+2373360Y+1211780D01*
X+2373360Y+1440000D01*
X+5024000Y+1095000D02*
X+4903980Y+1095000D01*
X+4903980Y+1259500D01*
X+4140000Y+2540000D02*
X+4262000Y+2540000D01*
X+4373500Y+2428500D01*
X+4780000Y+2428500D01*
X+4780000Y+2560000D01*
X+5024000Y+1095000D02*
X+5423980Y+1095000D01*
X+5423980Y+1239500D01*
X+5532000Y+2555500D02*
X+6103500Y+1984000D01*
X+6103500Y+1285500D01*
X+4140000Y+2540000D02*
X+4140000Y+2428500D01*
X+3558000Y+2428500D01*
X+3436500Y+2550000D01*
X+3313360Y+2550000D01*
X+6356000Y+3864000D02*
X+5951500Y+3864000D01*
X+5913000Y+3825500D01*
X+1341000Y+2492000D02*
X+1404500Y+2428500D01*
X+1953360Y+2428500D01*
X+1953360Y+2580000D01*
X+3313360Y+2550000D02*
X+3313360Y+2361140D01*
X+3436500Y+2238000D01*
X+3246000Y+1793640D02*
X+3436500Y+1793640D01*
X+3436500Y+1920500D01*
X+3182500Y+1603000D02*
X+3253480Y+1532020D01*
X+3563500Y+1532020D01*
X+2373360Y+1440000D02*
X+2373360Y+1793500D01*
X+2436860Y+1857000D01*
X+2623980Y+1857000D01*
X+2623980Y+1979500D01*
X+2623980Y+2111000D01*
X+2643360Y+2130380D01*
X+2643360Y+2570000D01*
X+6103500Y+1285500D02*
X+6084450Y+1266450D01*
X+5943980Y+1266450D01*
X+5943980Y+1229500D01*
X+2992000Y+1626000D02*
X+3159500Y+1626000D01*
X+3182500Y+1603000D01*
X+5532000Y+2555500D02*
X+5527500Y+2560000D01*
X+5393360Y+2560000D01*
X+4780000Y+2560000D02*
X+4956000Y+2560000D01*
X+4960500Y+2555500D01*
X+3436500Y+2238000D02*
X+3436500Y+1920500D01*
X+3246000Y+1793640D02*
X+3246000Y+1666500D01*
X+3182500Y+1603000D01*
X+4516000Y+1158500D02*
X+4363980Y+1158500D01*
X+4363980Y+1249500D01*
X+2650000Y+390000D02*
X+2780789Y+520789D01*
X+2780789Y+600289D01*
X+2840500Y+660000D01*
X+2426640Y+1010000D02*
X+2411434Y+1010000D01*
X+2252372Y+850938D01*
X+2650000Y+390000D02*
X+2553532Y+390000D01*
X+2390738Y+552794D01*
X+2390738Y+974098D01*
X+2426640Y+1010000D01*
X+2650000Y+240000D02*
X+2650000Y+215061D01*
X+2730062Y+134999D01*
X+2730062Y+105349D01*
X+2713500Y+120000D01*
X+2650000Y+390000D02*
X+2650000Y+240000D01*
D11*
X+5700000Y+1700000D02*
X+5713360Y+1713360D01*
X+5713360Y+2070000D01*
X+5913000Y+1539500D02*
X+5875400Y+1539500D01*
X+5850000Y+1514100D01*
X+5850000Y+1420000D01*
X+4008000Y+1857000D02*
X+4135000Y+1857000D01*
X+4243360Y+1965360D01*
X+4243360Y+2080000D01*
X+4264000Y+1700000D02*
X+4270000Y+1694000D01*
X+4270000Y+1440000D01*
X+4833500Y+2047500D02*
X+4713360Y+2047500D01*
X+4713360Y+2070000D01*
X+4834000Y+1700000D02*
X+4810000Y+1676000D01*
X+4810000Y+1450000D01*
X+5151000Y+1920500D02*
X+5233360Y+1920500D01*
X+5233360Y+2070000D01*
X+5394000Y+1710000D02*
X+5394000Y+1430000D01*
X+5330000Y+1430000D01*
D10*
X+2459500Y+660000D02*
X+2449500Y+660000D01*
X+2449500Y+694630D01*
X+2627819Y+872949D01*
X+2627819Y+946500D01*
X+2640000Y+1010000D01*
X+3290000Y+60000D02*
X+3235371Y+5371D01*
X+2659781Y+5371D01*
X+2586500Y+78652D01*
X+2586500Y+120000D01*
X+3610000Y+210000D02*
X+3556962Y+201938D01*
X+3553668Y+198644D01*
X+3224226Y+198644D01*
X+3145582Y+120000D01*
X+2840500Y+120000D01*
D11*
X+5849500Y+968000D02*
X+4833500Y+968000D01*
X+4716020Y+1085480D01*
X+4716020Y+1259500D01*
X+5151000Y+1349000D02*
X+4176020Y+1349000D01*
X+4176020Y+1249500D01*
X+6484500Y+2111000D02*
X+6484500Y+1031500D01*
X+6392190Y+939190D01*
X+6294000Y+939190D01*
X+6195810Y+841000D01*
X+5151000Y+841000D01*
X+6356000Y+2340000D02*
X+6230500Y+2214500D01*
X+6230500Y+1158500D01*
X+6167000Y+1095000D01*
X+5756020Y+1095000D01*
X+5756020Y+1229500D01*
X+6737000Y+1324000D02*
X+6548000Y+1135000D01*
X+6548000Y+523500D01*
X+6459500Y+435000D01*
X+6230500Y+435000D01*
X+6015000Y+650500D01*
X+4008000Y+650500D01*
X+3881000Y+777500D01*
X+2780360Y+777500D01*
X+2780360Y+709530D01*
X+2713500Y+709530D01*
X+2713500Y+660000D01*
X+6167000Y+1031500D02*
X+6040000Y+904500D01*
X+5087500Y+904500D01*
X+5087500Y+695800D01*
X+4491758Y+695800D01*
X+4491758Y+714000D01*
X+4135000Y+714000D01*
X+4008000Y+841000D01*
X+2738000Y+841000D01*
X+2665755Y+768755D01*
X+2626030Y+768755D01*
X+2626030Y+660000D01*
X+2586500Y+660000D01*
X+4834000Y+2950000D02*
X+4566640Y+2682640D01*
X+4566640Y+2560000D01*
X+5278000Y+2746000D02*
X+6230500Y+2746000D01*
X+5474000Y+2950000D02*
X+5333500Y+2809500D01*
X+5180000Y+2809500D01*
X+5180000Y+2560000D01*
X+5474000Y+2950000D02*
X+6128500Y+2950000D01*
X+6230500Y+2848000D01*
X+6356000Y+2848000D01*
X+3890000Y+2950000D02*
X+3890000Y+2746000D01*
X+3926640Y+2709360D01*
X+3926640Y+2540000D01*
X+6865500Y+4333500D02*
X+6865500Y+4502810D01*
X+6479190Y+4502810D01*
X+6356000Y+4626000D01*
X+2160000Y+1440000D02*
X+2160000Y+1539500D01*
X+2110000Y+1589500D01*
X+2110000Y+1820000D01*
X+1740000Y+2580000D02*
X+833000Y+2580000D01*
X+769500Y+2516500D01*
X+769500Y+432500D01*
X+641000Y+304000D01*
X+1740000Y+2580000D02*
X+1740000Y+2682500D01*
X+1803500Y+2746000D01*
X+1976000Y+2746000D01*
X+2430000Y+2570000D02*
X+2430000Y+2682500D01*
X+2611000Y+2682500D01*
X+2684000Y+2755500D01*
X+2684000Y+2960000D01*
X+2430000Y+2570000D02*
X+2430000Y+2428500D01*
X+2366500Y+2365000D01*
X+1341000Y+2365000D01*
X+833000Y+1857000D01*
X+833000Y+587000D01*
X+1722000Y+4737360D02*
X+1849000Y+4737360D01*
X+1849000Y+3317500D01*
X+1912500Y+3254000D01*
X+2865000Y+3254000D01*
X+2928500Y+3190500D01*
X+2928500Y+2428500D01*
X+3246000Y+2111000D01*
X+3246000Y+2007000D01*
X+1722000Y+4737360D02*
X+398640Y+4737360D01*
X+260000Y+4876000D01*
X+2166500Y+1984000D02*
X+2171000Y+1979500D01*
X+2436020Y+1979500D01*
X+3100000Y+2550000D02*
X+3055500Y+2550000D01*
X+3055500Y+2428500D01*
X+3100000Y+2550000D02*
X+3100000Y+2682500D01*
X+3246000Y+2682500D01*
X+3344000Y+2780500D01*
X+3344000Y+2960000D01*
X+4071500Y+1285500D02*
X+4071500Y+1095000D01*
X+4135000Y+1031500D01*
X+4288500Y+1031500D01*
X+4450000Y+870000D01*
X+1900000Y+1540000D02*
X+1896640Y+1543360D01*
X+1896640Y+1820000D01*
X+1683360Y+1920000D02*
X+1683360Y+2047500D01*
X+1805860Y+2170000D01*
X+2530000Y+2170000D01*
X+1683360Y+1920000D02*
X+1683360Y+1577360D01*
X+1646000Y+1540000D01*
X+2865000Y+2111000D02*
X+2865000Y+3127000D01*
X+2801500Y+3190500D01*
X+1785500Y+3190500D01*
X+1722000Y+3254000D01*
X+1722000Y+4524000D01*
X+2992000Y+1118000D02*
X+3246000Y+1118000D01*
X+3258000Y+1130000D01*
X+3610000Y+1130000D01*
X+2992000Y+1372000D02*
X+3690500Y+1372000D01*
X+3754000Y+1435500D01*
X+3754000Y+1626000D01*
X+2992000Y+1372000D02*
X+2611000Y+1372000D01*
X+2611000Y+1516640D01*
X+2160000Y+1440000D02*
X+2160000Y+1158500D01*
X+1849000Y+847500D01*
X+1849000Y+587000D01*
X+2103000Y+333000D01*
X+2103000Y-48000D01*
X+2166500Y-111500D01*
X+3898500Y-111500D01*
X+4279500Y+269500D01*
X+5595500Y+269500D01*
X+5722500Y+142500D01*
X+6802000Y+142500D01*
X+6865500Y+206000D01*
X+6865500Y+4245000D01*
X+6483000Y+4245000D01*
X+6356000Y+4372000D01*
X+3563500Y+1719980D02*
X+3563500Y+2301500D01*
X+3627000Y+2365000D01*
X+5214500Y+2365000D01*
X+5278000Y+2428500D01*
X+5278000Y+2619000D01*
X+5341500Y+2682500D01*
X+6040000Y+2682500D01*
X+6259310Y+2463190D01*
X+6421000Y+2463190D01*
X+6484500Y+2526690D01*
X+6484500Y+3734260D01*
X+5849500Y+3734260D01*
X+5786000Y+3797760D01*
X+5786000Y+4586000D01*
X+6080000Y+4880000D01*
X+6356000Y+4880000D01*
X+5236020Y+1239500D02*
X+5214500Y+1239500D01*
X+5214500Y+1476000D01*
D12*
X+2291905Y+192055D03*
X+2547500Y+2301500D03*
X+1214000Y+1793500D03*
X+3690500Y+2111000D03*
X+5024000Y+1095000D03*
X+5913000Y+3825500D03*
X+1341000Y+2492000D03*
X+4960500Y+2555500D03*
X+4516000Y+1158500D03*
X+3436500Y+1920500D03*
X+6103500Y+1285500D03*
X+5532000Y+2555500D03*
X+2252372Y+850938D03*
D13*
X+5913000Y+1539500D03*
X+4008000Y+1857000D03*
X+4833500Y+2047500D03*
X+5151000Y+1920500D03*
X+5849500Y+968000D03*
X+5151000Y+1349000D03*
X+5151000Y+841000D03*
X+6484500Y+2111000D03*
X+6167000Y+1031500D03*
X+6230500Y+2746000D03*
X+5278000Y+2746000D03*
X+6865500Y+4333500D03*
X+1976000Y+2746000D03*
X+833000Y+587000D03*
X+2166500Y+1984000D03*
X+3055500Y+2428500D03*
X+4071500Y+1285500D03*
X+2865000Y+2111000D03*
X+5214500Y+1476000D03*
D14*
X+260000Y+4876000D03*
D15*
X+641000Y+4876000D03*
X+260000Y+4622000D03*
X+641000Y+4622000D03*
X+260000Y+4368000D03*
X+641000Y+4368000D03*
X+260000Y+4114000D03*
X+641000Y+4114000D03*
X+260000Y+3860000D03*
X+641000Y+3860000D03*
X+260000Y+3606000D03*
X+641000Y+3606000D03*
X+260000Y+3352000D03*
X+641000Y+3352000D03*
X+260000Y+3098000D03*
X+641000Y+3098000D03*
X+260000Y+2844000D03*
X+641000Y+2844000D03*
X+260000Y+2590000D03*
X+641000Y+2590000D03*
X+260000Y+2336000D03*
X+641000Y+2336000D03*
X+260000Y+2082000D03*
X+641000Y+2082000D03*
X+260000Y+1828000D03*
X+641000Y+1828000D03*
X+260000Y+1574000D03*
X+641000Y+1574000D03*
X+260000Y+1320000D03*
X+641000Y+1320000D03*
X+260000Y+1066000D03*
X+641000Y+1066000D03*
X+260000Y+812000D03*
X+641000Y+812000D03*
X+260000Y+558000D03*
X+641000Y+558000D03*
X+260000Y+304000D03*
X+641000Y+304000D03*
D14*
X+6356000Y+4880000D03*
D15*
X+6737000Y+4880000D03*
X+6356000Y+4626000D03*
X+6737000Y+4626000D03*
X+6356000Y+4372000D03*
X+6737000Y+4372000D03*
X+6356000Y+4118000D03*
X+6737000Y+4118000D03*
X+6356000Y+3864000D03*
X+6737000Y+3864000D03*
X+6356000Y+3610000D03*
X+6737000Y+3610000D03*
X+6356000Y+3356000D03*
X+6737000Y+3356000D03*
X+6356000Y+3102000D03*
X+6737000Y+3102000D03*
X+6356000Y+2848000D03*
X+6737000Y+2848000D03*
X+6356000Y+2594000D03*
X+6737000Y+2594000D03*
X+6356000Y+2340000D03*
X+6737000Y+2340000D03*
X+6356000Y+2086000D03*
X+6737000Y+2086000D03*
X+6356000Y+1832000D03*
X+6737000Y+1832000D03*
X+6356000Y+1578000D03*
X+6737000Y+1578000D03*
X+6356000Y+1324000D03*
X+6737000Y+1324000D03*
X+6356000Y+1070000D03*
X+6737000Y+1070000D03*
X+6356000Y+816000D03*
X+6737000Y+816000D03*
X+6356000Y+562000D03*
X+6737000Y+562000D03*
X+6356000Y+308000D03*
X+6737000Y+308000D03*
D16*
X+1060000Y+280000D03*
X+1520000Y+3540000D03*
X+1070000Y+2360000D03*
D17*
X+1560000Y+650000D03*
X+2068000Y+650000D03*
D16*
X+1910000Y+320000D03*
D18*
X+2840500Y+660000D03*
X+2713500Y+660000D03*
X+2586500Y+660000D03*
X+2459500Y+660000D03*
X+2459500Y+120000D03*
X+2586500Y+120000D03*
X+2713500Y+120000D03*
X+2840500Y+120000D03*
D19*
X+2650000Y+390000D03*
D70*
X+2640000Y+1010000D03*
X+2426640Y+1010000D03*
D16*
X+3290000Y+60000D03*
X+3610000Y+210000D03*
D71*
X+5520000Y+430000D03*
X+5266000Y+430000D03*
X+5012000Y+430000D03*
X+4758000Y+430000D03*
X+4504000Y+430000D03*
X+4250000Y+430000D03*
X+3996000Y+430000D03*
X+2992000Y+1880000D03*
X+2992000Y+1626000D03*
X+2992000Y+1372000D03*
X+2992000Y+1118000D03*
D20*
X+3754000Y+1626000D03*
X+3563500Y+1719980D03*
X+3563500Y+1532020D03*
D21*
X+2611000Y+1730000D03*
X+2611000Y+1516640D03*
X+1722000Y+4524000D03*
X+1722000Y+4737360D03*
X+3246000Y+2007000D03*
X+3246000Y+1793640D03*
D16*
X+3610000Y+1130000D03*
D71*
X+1138000Y+1540000D03*
X+1392000Y+1540000D03*
X+1646000Y+1540000D03*
X+1900000Y+1540000D03*
D70*
X+1896640Y+1820000D03*
X+2110000Y+1820000D03*
X+1470000Y+1920000D03*
X+1683360Y+1920000D03*
X+2160000Y+1440000D03*
X+2373360Y+1440000D03*
D22*
X+2530000Y+2170000D03*
X+2436020Y+1979500D03*
X+2623980Y+1979500D03*
D71*
X+4010000Y+1700000D03*
X+4264000Y+1700000D03*
D22*
X+4270000Y+1440000D03*
X+4176020Y+1249500D03*
X+4363980Y+1249500D03*
D70*
X+4030000Y+2080000D03*
X+4243360Y+2080000D03*
D71*
X+4580000Y+1700000D03*
X+4834000Y+1700000D03*
D70*
X+4500000Y+2070000D03*
X+4713360Y+2070000D03*
D22*
X+4810000Y+1450000D03*
X+4716020Y+1259500D03*
X+4903980Y+1259500D03*
D71*
X+5140000Y+1710000D03*
X+5394000Y+1710000D03*
X+5700000Y+1700000D03*
X+5954000Y+1700000D03*
D22*
X+5330000Y+1430000D03*
X+5236020Y+1239500D03*
X+5423980Y+1239500D03*
X+5850000Y+1420000D03*
X+5756020Y+1229500D03*
X+5943980Y+1229500D03*
D70*
X+5020000Y+2070000D03*
X+5233360Y+2070000D03*
X+5500000Y+2070000D03*
X+5713360Y+2070000D03*
D23*
X+4250000Y+870000D03*
X+4450000Y+870000D03*
X+4650000Y+870000D03*
D16*
X+4840000Y+830000D03*
D71*
X+1736000Y+2960000D03*
X+1990000Y+2960000D03*
D70*
X+1740000Y+2580000D03*
X+1953360Y+2580000D03*
D71*
X+3890000Y+2950000D03*
X+4144000Y+2950000D03*
D70*
X+3926640Y+2540000D03*
X+4140000Y+2540000D03*
D71*
X+4580000Y+2950000D03*
X+4834000Y+2950000D03*
D70*
X+4566640Y+2560000D03*
X+4780000Y+2560000D03*
D71*
X+2430000Y+2960000D03*
X+2684000Y+2960000D03*
D70*
X+2430000Y+2570000D03*
X+2643360Y+2570000D03*
D71*
X+3090000Y+2960000D03*
X+3344000Y+2960000D03*
D70*
X+3100000Y+2550000D03*
X+3313360Y+2550000D03*
D71*
X+5220000Y+2950000D03*
X+5474000Y+2950000D03*
D70*
X+5180000Y+2560000D03*
X+5393360Y+2560000D03*
D24*
X+0Y+0D02*
X+1650000Y+0D01*
X+7000000Y+0D02*
X+7000000Y+6000000D01*
X+5000000Y+6000000D01*
X+5000000Y+3700000D01*
X+4800000Y+3500000D01*
X+2200000Y+3500000D01*
X+2000000Y+3700000D02*
X+2000000Y+6000000D01*
X+0Y+6000000D01*
X+0Y+0D01*
X+2000000Y+3700000D02*
X+2200000Y+3500000D01*
X+5160000Y+0D02*
X+7000000Y+0D01*
X+1750000Y-200000D02*
X+5050000Y-200000D01*
X+1650000Y+0D02*
X+1750000Y-200000D01*
X+5160000Y+0D02*
X+5050000Y-200000D01*
X+4550045Y+50000D02*
X+4549508Y+63142D01*
X+4545144Y+89427D01*
X+4536029Y+115712D01*
X+4521182Y+141997D01*
X+4498470Y+168118D01*
X+4472185Y+187898D01*
X+4445900Y+200658D01*
X+4419615Y+208108D01*
X+4393330Y+210987D01*
X+4389000Y+211045D01*
X+4227955Y+50000D02*
X+4228492Y+63142D01*
X+4232856Y+89427D01*
X+4241971Y+115712D01*
X+4256818Y+141997D01*
X+4279530Y+168118D01*
X+4305815Y+187898D01*
X+4332100Y+200658D01*
X+4358385Y+208108D01*
X+4384670Y+210987D01*
X+4389000Y+211045D01*
X+4227955Y+50000D02*
X+4228492Y+36858D01*
X+4232856Y+10573D01*
X+4241971Y-15712D01*
X+4256818Y-41997D01*
X+4279530Y-68118D01*
X+4305815Y-87898D01*
X+4332100Y-100658D01*
X+4358385Y-108108D01*
X+4384670Y-110987D01*
X+4389000Y-111045D01*
X+4550045Y+50000D02*
X+4549508Y+36858D01*
X+4545144Y+10573D01*
X+4536029Y-15712D01*
X+4521182Y-41997D01*
X+4498470Y-68118D01*
X+4472185Y-87898D01*
X+4445900Y-100658D01*
X+4419615Y-108108D01*
X+4393330Y-110987D01*
X+4389000Y-111045D01*
X+6074045Y+5130000D02*
X+6073508Y+5143142D01*
X+6069144Y+5169427D01*
X+6060029Y+5195712D01*
X+6045182Y+5221997D01*
X+6022470Y+5248118D01*
X+5996185Y+5267898D01*
X+5969900Y+5280658D01*
X+5943615Y+5288108D01*
X+5917330Y+5290987D01*
X+5913000Y+5291045D01*
X+5751955Y+5130000D02*
X+5752492Y+5143142D01*
X+5756856Y+5169427D01*
X+5765971Y+5195712D01*
X+5780818Y+5221997D01*
X+5803530Y+5248118D01*
X+5829815Y+5267898D01*
X+5856100Y+5280658D01*
X+5882385Y+5288108D01*
X+5908670Y+5290987D01*
X+5913000Y+5291045D01*
X+5751955Y+5130000D02*
X+5752492Y+5116858D01*
X+5756856Y+5090573D01*
X+5765971Y+5064288D01*
X+5780818Y+5038003D01*
X+5803530Y+5011882D01*
X+5829815Y+4992102D01*
X+5856100Y+4979342D01*
X+5882385Y+4971892D01*
X+5908670Y+4969013D01*
X+5913000Y+4968955D01*
X+6074045Y+5130000D02*
X+6073508Y+5116858D01*
X+6069144Y+5090573D01*
X+6060029Y+5064288D01*
X+6045182Y+5038003D01*
X+6022470Y+5011882D01*
X+5996185Y+4992102D01*
X+5969900Y+4979342D01*
X+5943615Y+4971892D01*
X+5917330Y+4969013D01*
X+5913000Y+4968955D01*
X+1248045Y+5257000D02*
X+1247508Y+5270142D01*
X+1243144Y+5296427D01*
X+1234029Y+5322712D01*
X+1219182Y+5348997D01*
X+1196470Y+5375118D01*
X+1170185Y+5394898D01*
X+1143900Y+5407658D01*
X+1117615Y+5415108D01*
X+1091330Y+5417987D01*
X+1087000Y+5418045D01*
X+925955Y+5257000D02*
X+926492Y+5270142D01*
X+930856Y+5296427D01*
X+939971Y+5322712D01*
X+954818Y+5348997D01*
X+977530Y+5375118D01*
X+1003815Y+5394898D01*
X+1030100Y+5407658D01*
X+1056385Y+5415108D01*
X+1082670Y+5417987D01*
X+1087000Y+5418045D01*
X+925955Y+5257000D02*
X+926492Y+5243858D01*
X+930856Y+5217573D01*
X+939971Y+5191288D01*
X+954818Y+5165003D01*
X+977530Y+5138882D01*
X+1003815Y+5119102D01*
X+1030100Y+5106342D01*
X+1056385Y+5098892D01*
X+1082670Y+5096013D01*
X+1087000Y+5095955D01*
X+1248045Y+5257000D02*
X+1247508Y+5243858D01*
X+1243144Y+5217573D01*
X+1234029Y+5191288D01*
X+1219182Y+5165003D01*
X+1196470Y+5138882D01*
X+1170185Y+5119102D01*
X+1143900Y+5106342D01*
X+1117615Y+5098892D01*
X+1091330Y+5096013D01*
X+1087000Y+5095955D01*
M02*
